0
SECTION
2
HEADER
9
$INSUNITS
70
4
9
$ACADVER
1
AC1014
9
$HANDSEED
5
FFFF
0
ENDSEC
0
SECTION
2
TABLES
0
TABLE
2
VPORT
5
8
100
AcDbSymbolTable
0
ENDTAB
0
TABLE
2
LTYPE
5
5
100
AcDbSymbolTable
0
LTYPE
5
14
100
AcDbSymbolTableRecord
100
AcDbLinetypeTableRecord
2
BYBLOCK
70
0
0
LTYPE
5
15
100
AcDbSymbolTableRecord
100
AcDbLinetypeTableRecord
2
BYLAYER
70
0
0
ENDTAB
0
TABLE
2
LAYER
5
2
100
AcDbSymbolTable
70
2
0
LAYER
5
50
100
AcDbSymbolTableRecord
100
AcDbLayerTableRecord
2
0
70
0
6
CONTINUOUS
0
ENDTAB
0
TABLE
2
STYLE
5
3
100
AcDbSymbolTable
70
1
0
STYLE
5
11
100
AcDbSymbolTableRecord
100
AcDbTextStyleTableRecord
2
STANDARD
70
0
0
ENDTAB
0
TABLE
2
VIEW
5
6
100
AcDbSymbolTable
70
0
0
ENDTAB
0
TABLE
2
UCS
5
7
100
AcDbSymbolTable
70
0
0
ENDTAB
0
TABLE
2
APPID
5
9
100
AcDbSymbolTable
70
2
0
APPID
5
12
100
AcDbSymbolTableRecord
100
AcDbRegAppTableRecord
2
ACAD
70
0
0
ENDTAB
0
TABLE
2
DIMSTYLE
5
A
100
AcDbSymbolTable
70
1
0
ENDTAB
0
TABLE
2
BLOCK_RECORD
5
1
100
AcDbSymbolTable
70
1
0
BLOCK_RECORD
5
1F
100
AcDbSymbolTableRecord
100
AcDbBlockTableRecord
2
*MODEL_SPACE
0
BLOCK_RECORD
5
1B
100
AcDbSymbolTableRecord
100
AcDbBlockTableRecord
2
*PAPER_SPACE
0
ENDTAB
0
ENDSEC
0
SECTION
2
BLOCKS
0
BLOCK
5
20
100
AcDbEntity
100
AcDbBlockBegin
2
*MODEL_SPACE
0
ENDBLK
5
21
100
AcDbEntity
100
AcDbBlockEnd
0
BLOCK
5
1C
100
AcDbEntity
100
AcDbBlockBegin
2
*PAPER_SPACE
0
ENDBLK
5
1D
100
AcDbEntity
100
AcDbBlockEnd
0
ENDSEC
0
SECTION
2
ENTITIES
0
LWPOLYLINE
5
100
100
AcDbEntity
8
0
100
AcDbPolyline
90
4
70
1
43
0.0
10
-23.334507733899009
20
14.849267618862781
10
-14.849217190954871
20
23.334539824385871
10
-19.091853293716404
20
27.577185095857935
10
-27.57714383666055
20
19.091912890334861
0
CIRCLE
5
101
100
AcDbEntity
8
0
100
AcDbCircle
10
28.000000000000011
20
0.0052936617161951534
30
0
40
1.6500000000000004
0
CIRCLE
5
102
100
AcDbEntity
8
0
100
AcDbCircle
10
0.0052936617162092393
20
-28.000000000000004
30
0
40
1.6500000000000001
0
CIRCLE
5
103
100
AcDbEntity
8
0
100
AcDbCircle
10
-0.005293661716196928
20
28.000000000000004
30
0
40
1.6500000000000001
0
CIRCLE
5
104
100
AcDbEntity
8
0
100
AcDbCircle
10
-28
20
-0.0052936617162075861
30
0
40
1.6500000000000004
0
LWPOLYLINE
5
105
100
AcDbEntity
8
0
100
AcDbPolyline
90
4
70
1
43
0.0
10
-8.3800546420088189
20
-19.814631257687402
10
-12.969987925313331
20
-17.164628907700124
10
-15.619990275288771
20
-21.75456219097352
10
-11.030056991986974
20
-24.40456454098296
0
LWPOLYLINE
5
106
100
AcDbEntity
8
0
100
AcDbPolyline
90
4
70
1
43
0.0
10
15.619990275282291
20
21.754562190981822
10
11.030056992000558
20
24.40456454098598
10
8.3800546420073321
20
19.814631257700832
10
12.969987925313426
20
17.164628907701321
0
CIRCLE
5
107
100
AcDbEntity
8
0
100
AcDbCircle
10
0
20
0
30
0
40
14.200000000000001
0
LWPOLYLINE
5
108
100
AcDbEntity
8
0
100
AcDbPolyline
90
4
70
1
43
0.0
10
-2.6499776867916509
20
20.650002863441081
10
-2.6499834136733655
20
15.350002863427861
10
2.6500165863152114
20
15.349997136556384
10
2.6500223131976135
20
20.649997136552226
0
LWPOLYLINE
5
109
100
AcDbEntity
8
0
100
AcDbPolyline
90
4
70
1
43
0.0
10
2.6499834136758644
20
-15.350002863436828
10
-2.6500165863280016
20
-15.34999713654981
10
-2.650022313196883
20
-20.649997136559062
10
2.6499776868000198
20
-20.65000286343497
0
LWPOLYLINE
5
110
100
AcDbEntity
8
0
100
AcDbPolyline
90
4
70
1
43
0.0
10
29.600744254029259
20
14.029999427889866
10
26.950750820448938
20
18.619937859061018
10
22.360812389277093
20
15.969944425473823
10
25.010805822842816
20
11.380005994272313
0
LWPOLYLINE
5
111
100
AcDbEntity
8
0
100
AcDbPolyline
90
4
70
1
43
0.0
10
38.649999999997661
20
-2.6500388995365718
10
38.649999999998876
20
2.6499611004640675
10
33.350000000002112
20
2.6499611004776726
10
33.350000000006624
20
-2.6500388995366508
0
LWPOLYLINE
5
112
100
AcDbEntity
8
0
100
AcDbPolyline
90
4
70
1
43
0.0
10
-38.650000000006642
20
2.6500388995362574
10
-38.650000000006642
20
-2.6499611004637429
10
-33.350000000006645
20
-2.6499611004637429
10
-33.350000000006645
20
2.6500388995362574
0
LWPOLYLINE
5
113
100
AcDbEntity
8
0
100
AcDbPolyline
90
4
70
1
43
0.0
10
-22.360812389270428
20
-15.969944425469173
10
-25.010805822842453
20
-11.380005994272311
10
-29.600744254006116
20
-14.029999427872093
10
-26.950750820442071
20
-18.619937859055995
0
CIRCLE
5
114
100
AcDbEntity
8
0
100
AcDbCircle
10
0
20
0
30
0
40
40
0
ENDSEC
0
SECTION
2
OBJECTS
0
DICTIONARY
5
C
100
AcDbDictionary
3
ACAD_GROUP
350
D
3
ACAD_MLINESTYLE
350
17
0
DICTIONARY
5
D
100
AcDbDictionary
0
DICTIONARY
5
1A
330
C
100
AcDbDictionary
0
DICTIONARY
5
17
100
AcDbDictionary
0
ENDSEC
0
EOF
