G04 #@! TF.GenerationSoftware,KiCad,Pcbnew,(5.0.2)-1*
G04 #@! TF.CreationDate,2019-06-21T17:09:31-07:00*
G04 #@! TF.ProjectId,slip_ring_rotor,736c6970-5f72-4696-9e67-5f726f746f72,rev?*
G04 #@! TF.SameCoordinates,Original*
G04 #@! TF.FileFunction,Soldermask,Top*
G04 #@! TF.FilePolarity,Negative*
%FSLAX46Y46*%
G04 Gerber Fmt 4.6, Leading zero omitted, Abs format (unit mm)*
G04 Created by KiCad (PCBNEW (5.0.2)-1) date 6/21/2019 5:09:31 PM*
%MOMM*%
%LPD*%
G01*
G04 APERTURE LIST*
%ADD10C,0.100000*%
G04 APERTURE END LIST*
D10*
G36*
X375256Y-26391298D02*
X481579Y-26412447D01*
X782042Y-26536903D01*
X1048852Y-26715180D01*
X1052454Y-26717587D01*
X1282413Y-26947546D01*
X1463098Y-27217960D01*
X1587553Y-27518422D01*
X1651000Y-27837389D01*
X1651000Y-28162611D01*
X1587553Y-28481578D01*
X1463098Y-28782040D01*
X1282413Y-29052454D01*
X1052454Y-29282413D01*
X1052451Y-29282415D01*
X782042Y-29463097D01*
X481579Y-29587553D01*
X375256Y-29608702D01*
X162611Y-29651000D01*
X-162611Y-29651000D01*
X-375256Y-29608702D01*
X-481579Y-29587553D01*
X-782042Y-29463097D01*
X-1052451Y-29282415D01*
X-1052454Y-29282413D01*
X-1282413Y-29052454D01*
X-1463098Y-28782040D01*
X-1587553Y-28481578D01*
X-1651000Y-28162611D01*
X-1651000Y-27837389D01*
X-1587553Y-27518422D01*
X-1463098Y-27217960D01*
X-1282413Y-26947546D01*
X-1052454Y-26717587D01*
X-1048852Y-26715180D01*
X-782042Y-26536903D01*
X-481579Y-26412447D01*
X-375256Y-26391298D01*
X-162611Y-26349000D01*
X162611Y-26349000D01*
X375256Y-26391298D01*
X375256Y-26391298D01*
G37*
G36*
X-11255904Y-18297033D02*
X-11255902Y-18297034D01*
X-11255901Y-18297034D01*
X-10791648Y-18489333D01*
X-10410369Y-18744096D01*
X-10373829Y-18768511D01*
X-10018511Y-19123829D01*
X-10018509Y-19123832D01*
X-9739333Y-19541648D01*
X-9704323Y-19626171D01*
X-9547033Y-20005904D01*
X-9458106Y-20452967D01*
X-9449000Y-20498748D01*
X-9449000Y-21001252D01*
X-9547034Y-21494099D01*
X-9739333Y-21958352D01*
X-10017250Y-22374284D01*
X-10018511Y-22376171D01*
X-10373829Y-22731489D01*
X-10373832Y-22731491D01*
X-10791648Y-23010667D01*
X-11255901Y-23202966D01*
X-11255902Y-23202966D01*
X-11255904Y-23202967D01*
X-11748747Y-23301000D01*
X-12251253Y-23301000D01*
X-12744096Y-23202967D01*
X-12744098Y-23202966D01*
X-12744099Y-23202966D01*
X-13208352Y-23010667D01*
X-13626168Y-22731491D01*
X-13626171Y-22731489D01*
X-13981489Y-22376171D01*
X-13982750Y-22374284D01*
X-14260667Y-21958352D01*
X-14452966Y-21494099D01*
X-14551000Y-21001252D01*
X-14551000Y-20498748D01*
X-14541894Y-20452967D01*
X-14452967Y-20005904D01*
X-14295677Y-19626171D01*
X-14260667Y-19541648D01*
X-13981491Y-19123832D01*
X-13981489Y-19123829D01*
X-13626171Y-18768511D01*
X-13589631Y-18744096D01*
X-13208352Y-18489333D01*
X-12744099Y-18297034D01*
X-12744098Y-18297034D01*
X-12744096Y-18297033D01*
X-12251253Y-18199000D01*
X-11748747Y-18199000D01*
X-11255904Y-18297033D01*
X-11255904Y-18297033D01*
G37*
G36*
X744096Y-15547033D02*
X744098Y-15547034D01*
X744099Y-15547034D01*
X1208352Y-15739333D01*
X1624284Y-16017250D01*
X1626171Y-16018511D01*
X1981489Y-16373829D01*
X1981491Y-16373832D01*
X2260667Y-16791648D01*
X2452966Y-17255901D01*
X2452967Y-17255904D01*
X2551000Y-17748747D01*
X2551000Y-18251253D01*
X2503643Y-18489334D01*
X2452966Y-18744099D01*
X2260667Y-19208352D01*
X1982750Y-19624284D01*
X1981489Y-19626171D01*
X1626171Y-19981489D01*
X1626168Y-19981491D01*
X1208352Y-20260667D01*
X744099Y-20452966D01*
X744098Y-20452966D01*
X744096Y-20452967D01*
X251253Y-20551000D01*
X-251253Y-20551000D01*
X-744096Y-20452967D01*
X-744098Y-20452966D01*
X-744099Y-20452966D01*
X-1208352Y-20260667D01*
X-1626168Y-19981491D01*
X-1626171Y-19981489D01*
X-1981489Y-19626171D01*
X-1982750Y-19624284D01*
X-2260667Y-19208352D01*
X-2452966Y-18744099D01*
X-2503642Y-18489334D01*
X-2551000Y-18251253D01*
X-2551000Y-17748747D01*
X-2452967Y-17255904D01*
X-2452966Y-17255901D01*
X-2260667Y-16791648D01*
X-1981491Y-16373832D01*
X-1981489Y-16373829D01*
X-1626171Y-16018511D01*
X-1624284Y-16017250D01*
X-1208352Y-15739333D01*
X-744099Y-15547034D01*
X-744098Y-15547034D01*
X-744096Y-15547033D01*
X-251253Y-15449000D01*
X251253Y-15449000D01*
X744096Y-15547033D01*
X744096Y-15547033D01*
G37*
G36*
X-25255904Y-12547033D02*
X-25255902Y-12547034D01*
X-25255901Y-12547034D01*
X-24791648Y-12739333D01*
X-24375716Y-13017250D01*
X-24373829Y-13018511D01*
X-24018511Y-13373829D01*
X-24018509Y-13373832D01*
X-23739333Y-13791648D01*
X-23547034Y-14255901D01*
X-23547033Y-14255904D01*
X-23449000Y-14748747D01*
X-23449000Y-15251253D01*
X-23488334Y-15449000D01*
X-23547034Y-15744099D01*
X-23739333Y-16208352D01*
X-24017250Y-16624284D01*
X-24018511Y-16626171D01*
X-24373829Y-16981489D01*
X-24373832Y-16981491D01*
X-24791648Y-17260667D01*
X-25255901Y-17452966D01*
X-25255902Y-17452966D01*
X-25255904Y-17452967D01*
X-25748747Y-17551000D01*
X-26251253Y-17551000D01*
X-26744096Y-17452967D01*
X-26744098Y-17452966D01*
X-26744099Y-17452966D01*
X-27208352Y-17260667D01*
X-27626168Y-16981491D01*
X-27626171Y-16981489D01*
X-27981489Y-16626171D01*
X-27982750Y-16624284D01*
X-28260667Y-16208352D01*
X-28452966Y-15744099D01*
X-28511665Y-15449000D01*
X-28551000Y-15251253D01*
X-28551000Y-14748747D01*
X-28452967Y-14255904D01*
X-28452966Y-14255901D01*
X-28260667Y-13791648D01*
X-27981491Y-13373832D01*
X-27981489Y-13373829D01*
X-27626171Y-13018511D01*
X-27624284Y-13017250D01*
X-27208352Y-12739333D01*
X-26744099Y-12547034D01*
X-26744098Y-12547034D01*
X-26744096Y-12547033D01*
X-26251253Y-12449000D01*
X-25748747Y-12449000D01*
X-25255904Y-12547033D01*
X-25255904Y-12547033D01*
G37*
G36*
X1327475Y4376108D02*
X1327477Y4376107D01*
X1327478Y4376107D01*
X2155707Y4033044D01*
X2897727Y3537241D01*
X2901096Y3534990D01*
X3534990Y2901096D01*
X3534992Y2901093D01*
X4033044Y2155707D01*
X4319931Y1463098D01*
X4376108Y1327475D01*
X4551000Y448236D01*
X4551000Y-448236D01*
X4430814Y-1052451D01*
X4376107Y-1327478D01*
X4033044Y-2155707D01*
X3768917Y-2551000D01*
X3534990Y-2901096D01*
X2901096Y-3534990D01*
X2901093Y-3534992D01*
X2155707Y-4033044D01*
X1327478Y-4376107D01*
X1327477Y-4376107D01*
X1327475Y-4376108D01*
X448236Y-4551000D01*
X-448236Y-4551000D01*
X-1327475Y-4376108D01*
X-1327477Y-4376107D01*
X-1327478Y-4376107D01*
X-2155707Y-4033044D01*
X-2901093Y-3534992D01*
X-2901096Y-3534990D01*
X-3534990Y-2901096D01*
X-3768917Y-2551000D01*
X-4033044Y-2155707D01*
X-4376107Y-1327478D01*
X-4430813Y-1052451D01*
X-4551000Y-448236D01*
X-4551000Y448236D01*
X-4376108Y1327475D01*
X-4319931Y1463098D01*
X-4033044Y2155707D01*
X-3534992Y2901093D01*
X-3534990Y2901096D01*
X-2901096Y3534990D01*
X-2897727Y3537241D01*
X-2155707Y4033044D01*
X-1327478Y4376107D01*
X-1327477Y4376107D01*
X-1327475Y4376108D01*
X-448236Y4551000D01*
X448236Y4551000D01*
X1327475Y4376108D01*
X1327475Y4376108D01*
G37*
G36*
X36744096Y2452967D02*
X36744098Y2452966D01*
X36744099Y2452966D01*
X37208352Y2260667D01*
X37624284Y1982750D01*
X37626171Y1981489D01*
X37981489Y1626171D01*
X37981491Y1626168D01*
X38260667Y1208352D01*
X38452966Y744099D01*
X38551000Y251252D01*
X38551000Y-251252D01*
X38452966Y-744099D01*
X38260667Y-1208352D01*
X38090451Y-1463098D01*
X37981489Y-1626171D01*
X37626171Y-1981489D01*
X37626168Y-1981491D01*
X37208352Y-2260667D01*
X36744099Y-2452966D01*
X36744098Y-2452966D01*
X36744096Y-2452967D01*
X36251253Y-2551000D01*
X35748747Y-2551000D01*
X35255904Y-2452967D01*
X35255902Y-2452966D01*
X35255901Y-2452966D01*
X34791648Y-2260667D01*
X34373832Y-1981491D01*
X34373829Y-1981489D01*
X34018511Y-1626171D01*
X33909549Y-1463098D01*
X33739333Y-1208352D01*
X33547034Y-744099D01*
X33449000Y-251252D01*
X33449000Y251252D01*
X33547034Y744099D01*
X33739333Y1208352D01*
X34018509Y1626168D01*
X34018511Y1626171D01*
X34373829Y1981489D01*
X34375716Y1982750D01*
X34791648Y2260667D01*
X35255901Y2452966D01*
X35255902Y2452966D01*
X35255904Y2452967D01*
X35748747Y2551000D01*
X36251253Y2551000D01*
X36744096Y2452967D01*
X36744096Y2452967D01*
G37*
G36*
X-35255904Y2452967D02*
X-35255902Y2452966D01*
X-35255901Y2452966D01*
X-34791648Y2260667D01*
X-34375716Y1982750D01*
X-34373829Y1981489D01*
X-34018511Y1626171D01*
X-34018509Y1626168D01*
X-33739333Y1208352D01*
X-33547034Y744099D01*
X-33449000Y251252D01*
X-33449000Y-251252D01*
X-33547034Y-744099D01*
X-33739333Y-1208352D01*
X-33909549Y-1463098D01*
X-34018511Y-1626171D01*
X-34373829Y-1981489D01*
X-34373832Y-1981491D01*
X-34791648Y-2260667D01*
X-35255901Y-2452966D01*
X-35255902Y-2452966D01*
X-35255904Y-2452967D01*
X-35748747Y-2551000D01*
X-36251253Y-2551000D01*
X-36744096Y-2452967D01*
X-36744098Y-2452966D01*
X-36744099Y-2452966D01*
X-37208352Y-2260667D01*
X-37626168Y-1981491D01*
X-37626171Y-1981489D01*
X-37981489Y-1626171D01*
X-38090451Y-1463098D01*
X-38260667Y-1208352D01*
X-38452966Y-744099D01*
X-38551000Y-251252D01*
X-38551000Y251252D01*
X-38452966Y744099D01*
X-38260667Y1208352D01*
X-37981491Y1626168D01*
X-37981489Y1626171D01*
X-37626171Y1981489D01*
X-37624284Y1982750D01*
X-37208352Y2260667D01*
X-36744099Y2452966D01*
X-36744098Y2452966D01*
X-36744096Y2452967D01*
X-36251253Y2551000D01*
X-35748747Y2551000D01*
X-35255904Y2452967D01*
X-35255904Y2452967D01*
G37*
G36*
X-27624744Y1608702D02*
X-27518421Y1587553D01*
X-27217958Y1463097D01*
X-27014990Y1327478D01*
X-26947546Y1282413D01*
X-26717587Y1052454D01*
X-26536902Y782040D01*
X-26412447Y481578D01*
X-26349000Y162611D01*
X-26349000Y-162611D01*
X-26412447Y-481578D01*
X-26536902Y-782040D01*
X-26717587Y-1052454D01*
X-26947546Y-1282413D01*
X-26947549Y-1282415D01*
X-27217958Y-1463097D01*
X-27518421Y-1587553D01*
X-27624744Y-1608702D01*
X-27837389Y-1651000D01*
X-28162611Y-1651000D01*
X-28375256Y-1608702D01*
X-28481579Y-1587553D01*
X-28782042Y-1463097D01*
X-29052451Y-1282415D01*
X-29052454Y-1282413D01*
X-29282413Y-1052454D01*
X-29463098Y-782040D01*
X-29587553Y-481578D01*
X-29651000Y-162611D01*
X-29651000Y162611D01*
X-29587553Y481578D01*
X-29463098Y782040D01*
X-29282413Y1052454D01*
X-29052454Y1282413D01*
X-28985010Y1327478D01*
X-28782042Y1463097D01*
X-28481579Y1587553D01*
X-28375256Y1608702D01*
X-28162611Y1651000D01*
X-27837389Y1651000D01*
X-27624744Y1608702D01*
X-27624744Y1608702D01*
G37*
G36*
X28375256Y1608702D02*
X28481579Y1587553D01*
X28782042Y1463097D01*
X28985010Y1327478D01*
X29052454Y1282413D01*
X29282413Y1052454D01*
X29463098Y782040D01*
X29587553Y481578D01*
X29651000Y162611D01*
X29651000Y-162611D01*
X29587553Y-481578D01*
X29463098Y-782040D01*
X29282413Y-1052454D01*
X29052454Y-1282413D01*
X29052451Y-1282415D01*
X28782042Y-1463097D01*
X28481579Y-1587553D01*
X28375256Y-1608702D01*
X28162611Y-1651000D01*
X27837389Y-1651000D01*
X27624744Y-1608702D01*
X27518421Y-1587553D01*
X27217958Y-1463097D01*
X26947549Y-1282415D01*
X26947546Y-1282413D01*
X26717587Y-1052454D01*
X26536902Y-782040D01*
X26412447Y-481578D01*
X26349000Y-162611D01*
X26349000Y162611D01*
X26412447Y481578D01*
X26536902Y782040D01*
X26717587Y1052454D01*
X26947546Y1282413D01*
X27014990Y1327478D01*
X27217958Y1463097D01*
X27518421Y1587553D01*
X27624744Y1608702D01*
X27837389Y1651000D01*
X28162611Y1651000D01*
X28375256Y1608702D01*
X28375256Y1608702D01*
G37*
G36*
X26744096Y17452967D02*
X26744098Y17452966D01*
X26744099Y17452966D01*
X27208352Y17260667D01*
X27624284Y16982750D01*
X27626171Y16981489D01*
X27981489Y16626171D01*
X27981491Y16626168D01*
X28260667Y16208352D01*
X28452966Y15744099D01*
X28452967Y15744096D01*
X28551000Y15251253D01*
X28551000Y14748748D01*
X28452966Y14255901D01*
X28260667Y13791648D01*
X27982750Y13375716D01*
X27981489Y13373829D01*
X27626171Y13018511D01*
X27626168Y13018509D01*
X27208352Y12739333D01*
X26744099Y12547034D01*
X26744098Y12547034D01*
X26744096Y12547033D01*
X26251253Y12449000D01*
X25748747Y12449000D01*
X25255904Y12547033D01*
X25255902Y12547034D01*
X25255901Y12547034D01*
X24791648Y12739333D01*
X24373832Y13018509D01*
X24373829Y13018511D01*
X24018511Y13373829D01*
X24017250Y13375716D01*
X23739333Y13791648D01*
X23547034Y14255901D01*
X23449000Y14748748D01*
X23449000Y15251253D01*
X23547033Y15744096D01*
X23547034Y15744099D01*
X23739333Y16208352D01*
X24018509Y16626168D01*
X24018511Y16626171D01*
X24373829Y16981489D01*
X24375716Y16982750D01*
X24791648Y17260667D01*
X25255901Y17452966D01*
X25255902Y17452966D01*
X25255904Y17452967D01*
X25748747Y17551000D01*
X26251253Y17551000D01*
X26744096Y17452967D01*
X26744096Y17452967D01*
G37*
G36*
X744096Y20452967D02*
X744098Y20452966D01*
X744099Y20452966D01*
X1208352Y20260667D01*
X1386449Y20141666D01*
X1626171Y19981489D01*
X1981489Y19626171D01*
X1981491Y19626168D01*
X2260667Y19208352D01*
X2442854Y18768511D01*
X2452967Y18744096D01*
X2551000Y18251253D01*
X2551000Y17748747D01*
X2511666Y17551000D01*
X2452966Y17255901D01*
X2260667Y16791648D01*
X1982750Y16375716D01*
X1981489Y16373829D01*
X1626171Y16018511D01*
X1626168Y16018509D01*
X1208352Y15739333D01*
X744099Y15547034D01*
X744098Y15547034D01*
X744096Y15547033D01*
X251253Y15449000D01*
X-251253Y15449000D01*
X-744096Y15547033D01*
X-744098Y15547034D01*
X-744099Y15547034D01*
X-1208352Y15739333D01*
X-1626168Y16018509D01*
X-1626171Y16018511D01*
X-1981489Y16373829D01*
X-1982750Y16375716D01*
X-2260667Y16791648D01*
X-2452966Y17255901D01*
X-2511665Y17551000D01*
X-2551000Y17748747D01*
X-2551000Y18251253D01*
X-2452967Y18744096D01*
X-2442854Y18768511D01*
X-2260667Y19208352D01*
X-1981491Y19626168D01*
X-1981489Y19626171D01*
X-1626171Y19981489D01*
X-1386449Y20141666D01*
X-1208352Y20260667D01*
X-744099Y20452966D01*
X-744098Y20452966D01*
X-744096Y20452967D01*
X-251253Y20551000D01*
X251253Y20551000D01*
X744096Y20452967D01*
X744096Y20452967D01*
G37*
G36*
X-22984307Y19700125D02*
X-22947210Y19688872D01*
X-22913029Y19670602D01*
X-22878297Y19642097D01*
X-21857903Y18621703D01*
X-21829398Y18586971D01*
X-21811128Y18552790D01*
X-21799875Y18515693D01*
X-21796076Y18477119D01*
X-21799875Y18438545D01*
X-21811128Y18401448D01*
X-21829398Y18367267D01*
X-21857903Y18332535D01*
X-22489389Y17701049D01*
X-22524121Y17672544D01*
X-22558302Y17654274D01*
X-22595399Y17643021D01*
X-22633973Y17639222D01*
X-22672547Y17643021D01*
X-22709644Y17654274D01*
X-22743825Y17672544D01*
X-22778557Y17701049D01*
X-23798951Y18721443D01*
X-23827456Y18756175D01*
X-23845726Y18790356D01*
X-23856979Y18827453D01*
X-23860778Y18866027D01*
X-23856979Y18904601D01*
X-23845726Y18941698D01*
X-23827456Y18975879D01*
X-23798951Y19010611D01*
X-23167465Y19642097D01*
X-23132733Y19670602D01*
X-23098552Y19688872D01*
X-23061455Y19700125D01*
X-23022881Y19703924D01*
X-22984307Y19700125D01*
X-22984307Y19700125D01*
G37*
G36*
X12744096Y23202967D02*
X12744098Y23202966D01*
X12744099Y23202966D01*
X13208352Y23010667D01*
X13605588Y22745242D01*
X13626171Y22731489D01*
X13981489Y22376171D01*
X13981491Y22376168D01*
X14260667Y21958352D01*
X14452966Y21494099D01*
X14452967Y21494096D01*
X14551000Y21001253D01*
X14551000Y20498747D01*
X14455563Y20018953D01*
X14452966Y20005901D01*
X14260667Y19541648D01*
X13982750Y19125716D01*
X13981489Y19123829D01*
X13626171Y18768511D01*
X13626168Y18768509D01*
X13208352Y18489333D01*
X12744099Y18297034D01*
X12744098Y18297034D01*
X12744096Y18297033D01*
X12251253Y18199000D01*
X11748747Y18199000D01*
X11255904Y18297033D01*
X11255902Y18297034D01*
X11255901Y18297034D01*
X10791648Y18489333D01*
X10373832Y18768509D01*
X10373829Y18768511D01*
X10018511Y19123829D01*
X10017250Y19125716D01*
X9739333Y19541648D01*
X9547034Y20005901D01*
X9544438Y20018953D01*
X9449000Y20498747D01*
X9449000Y21001253D01*
X9547033Y21494096D01*
X9547034Y21494099D01*
X9739333Y21958352D01*
X10018509Y22376168D01*
X10018511Y22376171D01*
X10373829Y22731489D01*
X10394412Y22745242D01*
X10791648Y23010667D01*
X11255901Y23202966D01*
X11255902Y23202966D01*
X11255904Y23202967D01*
X11748747Y23301000D01*
X12251253Y23301000D01*
X12744096Y23202967D01*
X12744096Y23202967D01*
G37*
G36*
X-21481048Y20921821D02*
X-21358337Y20884596D01*
X-21358335Y20884595D01*
X-21245241Y20824146D01*
X-21201433Y20788193D01*
X-21170948Y20763175D01*
X-20736825Y20329052D01*
X-20675855Y20254760D01*
X-20615404Y20141664D01*
X-20578179Y20018953D01*
X-20565611Y19891334D01*
X-20578179Y19763714D01*
X-20615404Y19641003D01*
X-20615405Y19641001D01*
X-20675854Y19527907D01*
X-20757206Y19428780D01*
X-20856333Y19347428D01*
X-20969427Y19286979D01*
X-20969429Y19286978D01*
X-21092140Y19249753D01*
X-21210058Y19238141D01*
X-21219759Y19237185D01*
X-21219760Y19237185D01*
X-21347379Y19249753D01*
X-21470090Y19286978D01*
X-21470092Y19286979D01*
X-21583185Y19347428D01*
X-21596507Y19358361D01*
X-21657478Y19408399D01*
X-22091601Y19842522D01*
X-22131659Y19891333D01*
X-22152572Y19916815D01*
X-22213021Y20029909D01*
X-22213022Y20029911D01*
X-22250247Y20152622D01*
X-22262815Y20280241D01*
X-22250247Y20407860D01*
X-22213022Y20530571D01*
X-22213021Y20530573D01*
X-22152572Y20643667D01*
X-22071220Y20742794D01*
X-21972093Y20824146D01*
X-21858999Y20884595D01*
X-21858997Y20884596D01*
X-21736286Y20921821D01*
X-21608667Y20934389D01*
X-21481048Y20921821D01*
X-21481048Y20921821D01*
G37*
G36*
X-20066835Y22336034D02*
X-19944124Y22298809D01*
X-19944122Y22298808D01*
X-19831028Y22238359D01*
X-19787220Y22202406D01*
X-19756735Y22177388D01*
X-19322612Y21743265D01*
X-19261642Y21668973D01*
X-19201191Y21555877D01*
X-19163966Y21433166D01*
X-19151398Y21305547D01*
X-19163966Y21177927D01*
X-19201191Y21055216D01*
X-19201192Y21055214D01*
X-19261641Y20942120D01*
X-19342993Y20842993D01*
X-19442120Y20761641D01*
X-19555214Y20701192D01*
X-19555216Y20701191D01*
X-19677927Y20663966D01*
X-19795845Y20652354D01*
X-19805546Y20651398D01*
X-19805547Y20651398D01*
X-19933166Y20663966D01*
X-20055877Y20701191D01*
X-20133711Y20742794D01*
X-20168972Y20761641D01*
X-20182294Y20772574D01*
X-20243265Y20822612D01*
X-20677388Y21256735D01*
X-20717446Y21305546D01*
X-20738359Y21331028D01*
X-20798808Y21444122D01*
X-20798809Y21444124D01*
X-20836034Y21566835D01*
X-20848602Y21694454D01*
X-20836034Y21822073D01*
X-20798809Y21944784D01*
X-20791557Y21958352D01*
X-20738359Y22057880D01*
X-20657007Y22157007D01*
X-20557880Y22238359D01*
X-20444786Y22298808D01*
X-20444784Y22298809D01*
X-20322073Y22336034D01*
X-20194454Y22348602D01*
X-20066835Y22336034D01*
X-20066835Y22336034D01*
G37*
G36*
X-18652621Y23750248D02*
X-18529910Y23713023D01*
X-18529908Y23713022D01*
X-18416814Y23652573D01*
X-18373006Y23616620D01*
X-18342521Y23591602D01*
X-17908398Y23157479D01*
X-17847428Y23083187D01*
X-17786977Y22970091D01*
X-17749752Y22847380D01*
X-17737184Y22719761D01*
X-17749752Y22592141D01*
X-17786977Y22469430D01*
X-17786978Y22469428D01*
X-17847427Y22356334D01*
X-17928779Y22257207D01*
X-18027906Y22175855D01*
X-18141000Y22115406D01*
X-18141002Y22115405D01*
X-18263713Y22078180D01*
X-18381631Y22066568D01*
X-18391332Y22065612D01*
X-18391333Y22065612D01*
X-18518952Y22078180D01*
X-18641663Y22115405D01*
X-18641665Y22115406D01*
X-18754758Y22175855D01*
X-18768080Y22186788D01*
X-18829051Y22236826D01*
X-19263174Y22670949D01*
X-19303232Y22719760D01*
X-19324145Y22745242D01*
X-19384594Y22858336D01*
X-19384595Y22858338D01*
X-19421820Y22981049D01*
X-19434388Y23108668D01*
X-19421820Y23236287D01*
X-19384595Y23358998D01*
X-19384594Y23359000D01*
X-19324145Y23472094D01*
X-19242793Y23571221D01*
X-19143666Y23652573D01*
X-19030572Y23713022D01*
X-19030570Y23713023D01*
X-18907859Y23750248D01*
X-18780240Y23762816D01*
X-18652621Y23750248D01*
X-18652621Y23750248D01*
G37*
G36*
X375256Y29608702D02*
X481579Y29587553D01*
X782042Y29463097D01*
X1048852Y29284820D01*
X1052454Y29282413D01*
X1282413Y29052454D01*
X1463098Y28782040D01*
X1587553Y28481578D01*
X1651000Y28162611D01*
X1651000Y27837389D01*
X1587553Y27518422D01*
X1463098Y27217960D01*
X1282413Y26947546D01*
X1052454Y26717587D01*
X1052451Y26717585D01*
X782042Y26536903D01*
X481579Y26412447D01*
X375256Y26391298D01*
X162611Y26349000D01*
X-162611Y26349000D01*
X-375256Y26391298D01*
X-481579Y26412447D01*
X-782042Y26536903D01*
X-1052451Y26717585D01*
X-1052454Y26717587D01*
X-1282413Y26947546D01*
X-1463098Y27217960D01*
X-1587553Y27518422D01*
X-1651000Y27837389D01*
X-1651000Y28162611D01*
X-1587553Y28481578D01*
X-1463098Y28782040D01*
X-1282413Y29052454D01*
X-1052454Y29282413D01*
X-1048852Y29284820D01*
X-782042Y29463097D01*
X-481579Y29587553D01*
X-375256Y29608702D01*
X-162611Y29651000D01*
X162611Y29651000D01*
X375256Y29608702D01*
X375256Y29608702D01*
G37*
M02*
