G04 #@! TF.GenerationSoftware,KiCad,Pcbnew,(5.0.2)-1*
G04 #@! TF.CreationDate,2019-06-21T17:09:31-07:00*
G04 #@! TF.ProjectId,slip_ring_rotor,736c6970-5f72-4696-9e67-5f726f746f72,rev?*
G04 #@! TF.SameCoordinates,Original*
G04 #@! TF.FileFunction,Copper,L2,Bot*
G04 #@! TF.FilePolarity,Positive*
%FSLAX46Y46*%
G04 Gerber Fmt 4.6, Leading zero omitted, Abs format (unit mm)*
G04 Created by KiCad (PCBNEW (5.0.2)-1) date 6/21/2019 5:09:31 PM*
%MOMM*%
%LPD*%
G01*
G04 APERTURE LIST*
G04 #@! TA.AperFunction,ComponentPad*
%ADD10C,1.200000*%
G04 #@! TD*
G04 #@! TA.AperFunction,Conductor*
%ADD11C,1.200000*%
G04 #@! TD*
G04 #@! TA.AperFunction,Conductor*
%ADD12C,0.100000*%
G04 #@! TD*
G04 APERTURE END LIST*
D10*
G04 #@! TO.P,J1,4*
G04 #@! TO.N,Net-(J1-Pad4)*
X-18585786Y22914214D03*
D11*
G04 #@! TD*
G04 #@! TO.N,Net-(J1-Pad4)*
G04 #@! TO.C,J1*
X-18780240Y23108668D02*
X-18391332Y22719760D01*
D10*
G04 #@! TO.P,J1,3*
G04 #@! TO.N,Net-(J1-Pad3)*
X-20000000Y21500000D03*
D11*
G04 #@! TD*
G04 #@! TO.N,Net-(J1-Pad3)*
G04 #@! TO.C,J1*
X-20194454Y21694454D02*
X-19805546Y21305546D01*
D10*
G04 #@! TO.P,J1,2*
G04 #@! TO.N,Net-(J1-Pad2)*
X-21414213Y20085787D03*
D11*
G04 #@! TD*
G04 #@! TO.N,Net-(J1-Pad2)*
G04 #@! TO.C,J1*
X-21608667Y20280241D02*
X-21219759Y19891333D01*
D12*
G04 #@! TO.N,Net-(J1-Pad1)*
G04 #@! TO.C,J1*
G36*
X-22998377Y19609799D02*
X-22974109Y19606199D01*
X-22950310Y19600238D01*
X-22927211Y19591973D01*
X-22905032Y19581483D01*
X-22883989Y19568871D01*
X-22864283Y19554256D01*
X-22846105Y19537780D01*
X-21962220Y18653895D01*
X-21945744Y18635717D01*
X-21931129Y18616011D01*
X-21918517Y18594968D01*
X-21908027Y18572789D01*
X-21899762Y18549690D01*
X-21893801Y18525891D01*
X-21890201Y18501623D01*
X-21888997Y18477119D01*
X-21890201Y18452615D01*
X-21893801Y18428347D01*
X-21899762Y18404548D01*
X-21908027Y18381449D01*
X-21918517Y18359270D01*
X-21931129Y18338227D01*
X-21945744Y18318521D01*
X-21962220Y18300343D01*
X-22457197Y17805366D01*
X-22475375Y17788890D01*
X-22495081Y17774275D01*
X-22516124Y17761663D01*
X-22538303Y17751173D01*
X-22561402Y17742908D01*
X-22585201Y17736947D01*
X-22609469Y17733347D01*
X-22633973Y17732143D01*
X-22658477Y17733347D01*
X-22682745Y17736947D01*
X-22706544Y17742908D01*
X-22729643Y17751173D01*
X-22751822Y17761663D01*
X-22772865Y17774275D01*
X-22792571Y17788890D01*
X-22810749Y17805366D01*
X-23694634Y18689251D01*
X-23711110Y18707429D01*
X-23725725Y18727135D01*
X-23738337Y18748178D01*
X-23748827Y18770357D01*
X-23757092Y18793456D01*
X-23763053Y18817255D01*
X-23766653Y18841523D01*
X-23767857Y18866027D01*
X-23766653Y18890531D01*
X-23763053Y18914799D01*
X-23757092Y18938598D01*
X-23748827Y18961697D01*
X-23738337Y18983876D01*
X-23725725Y19004919D01*
X-23711110Y19024625D01*
X-23694634Y19042803D01*
X-23199657Y19537780D01*
X-23181479Y19554256D01*
X-23161773Y19568871D01*
X-23140730Y19581483D01*
X-23118551Y19591973D01*
X-23095452Y19600238D01*
X-23071653Y19606199D01*
X-23047385Y19609799D01*
X-23022881Y19611003D01*
X-22998377Y19609799D01*
X-22998377Y19609799D01*
G37*
D10*
G04 #@! TD*
G04 #@! TO.P,J1,1*
G04 #@! TO.N,Net-(J1-Pad1)*
X-22828427Y18671573D03*
M02*
