G04 #@! TF.GenerationSoftware,KiCad,Pcbnew,(5.0.2)-1*
G04 #@! TF.CreationDate,2019-06-21T17:09:31-07:00*
G04 #@! TF.ProjectId,slip_ring_rotor,736c6970-5f72-4696-9e67-5f726f746f72,rev?*
G04 #@! TF.SameCoordinates,Original*
G04 #@! TF.FileFunction,Soldermask,Bot*
G04 #@! TF.FilePolarity,Negative*
%FSLAX46Y46*%
G04 Gerber Fmt 4.6, Leading zero omitted, Abs format (unit mm)*
G04 Created by KiCad (PCBNEW (5.0.2)-1) date 6/21/2019 5:09:31 PM*
%MOMM*%
%LPD*%
G01*
G04 APERTURE LIST*
%ADD10C,0.100000*%
G04 APERTURE END LIST*
D10*
G36*
X375256Y-26391298D02*
X481579Y-26412447D01*
X782042Y-26536903D01*
X1048852Y-26715180D01*
X1052454Y-26717587D01*
X1282413Y-26947546D01*
X1463098Y-27217960D01*
X1587553Y-27518422D01*
X1651000Y-27837389D01*
X1651000Y-28162611D01*
X1587553Y-28481578D01*
X1463098Y-28782040D01*
X1282413Y-29052454D01*
X1052454Y-29282413D01*
X1052451Y-29282415D01*
X782042Y-29463097D01*
X481579Y-29587553D01*
X375256Y-29608702D01*
X162611Y-29651000D01*
X-162611Y-29651000D01*
X-375256Y-29608702D01*
X-481579Y-29587553D01*
X-782042Y-29463097D01*
X-1052451Y-29282415D01*
X-1052454Y-29282413D01*
X-1282413Y-29052454D01*
X-1463098Y-28782040D01*
X-1587553Y-28481578D01*
X-1651000Y-28162611D01*
X-1651000Y-27837389D01*
X-1587553Y-27518422D01*
X-1463098Y-27217960D01*
X-1282413Y-26947546D01*
X-1052454Y-26717587D01*
X-1048852Y-26715180D01*
X-782042Y-26536903D01*
X-481579Y-26412447D01*
X-375256Y-26391298D01*
X-162611Y-26349000D01*
X162611Y-26349000D01*
X375256Y-26391298D01*
X375256Y-26391298D01*
G37*
G36*
X1327475Y4376108D02*
X1327477Y4376107D01*
X1327478Y4376107D01*
X2155707Y4033044D01*
X2897727Y3537241D01*
X2901096Y3534990D01*
X3534990Y2901096D01*
X3534992Y2901093D01*
X4033044Y2155707D01*
X4319931Y1463098D01*
X4376108Y1327475D01*
X4551000Y448236D01*
X4551000Y-448236D01*
X4430814Y-1052451D01*
X4376107Y-1327478D01*
X4033044Y-2155707D01*
X3537241Y-2897727D01*
X3534990Y-2901096D01*
X2901096Y-3534990D01*
X2901093Y-3534992D01*
X2155707Y-4033044D01*
X1327478Y-4376107D01*
X1327477Y-4376107D01*
X1327475Y-4376108D01*
X448236Y-4551000D01*
X-448236Y-4551000D01*
X-1327475Y-4376108D01*
X-1327477Y-4376107D01*
X-1327478Y-4376107D01*
X-2155707Y-4033044D01*
X-2901093Y-3534992D01*
X-2901096Y-3534990D01*
X-3534990Y-2901096D01*
X-3537241Y-2897727D01*
X-4033044Y-2155707D01*
X-4376107Y-1327478D01*
X-4430813Y-1052451D01*
X-4551000Y-448236D01*
X-4551000Y448236D01*
X-4376108Y1327475D01*
X-4319931Y1463098D01*
X-4033044Y2155707D01*
X-3534992Y2901093D01*
X-3534990Y2901096D01*
X-2901096Y3534990D01*
X-2897727Y3537241D01*
X-2155707Y4033044D01*
X-1327478Y4376107D01*
X-1327477Y4376107D01*
X-1327475Y4376108D01*
X-448236Y4551000D01*
X448236Y4551000D01*
X1327475Y4376108D01*
X1327475Y4376108D01*
G37*
G36*
X-27624744Y1608702D02*
X-27518421Y1587553D01*
X-27217958Y1463097D01*
X-27014990Y1327478D01*
X-26947546Y1282413D01*
X-26717587Y1052454D01*
X-26536902Y782040D01*
X-26412447Y481578D01*
X-26349000Y162611D01*
X-26349000Y-162611D01*
X-26412447Y-481578D01*
X-26536902Y-782040D01*
X-26717587Y-1052454D01*
X-26947546Y-1282413D01*
X-26947549Y-1282415D01*
X-27217958Y-1463097D01*
X-27518421Y-1587553D01*
X-27624744Y-1608702D01*
X-27837389Y-1651000D01*
X-28162611Y-1651000D01*
X-28375256Y-1608702D01*
X-28481579Y-1587553D01*
X-28782042Y-1463097D01*
X-29052451Y-1282415D01*
X-29052454Y-1282413D01*
X-29282413Y-1052454D01*
X-29463098Y-782040D01*
X-29587553Y-481578D01*
X-29651000Y-162611D01*
X-29651000Y162611D01*
X-29587553Y481578D01*
X-29463098Y782040D01*
X-29282413Y1052454D01*
X-29052454Y1282413D01*
X-28985010Y1327478D01*
X-28782042Y1463097D01*
X-28481579Y1587553D01*
X-28375256Y1608702D01*
X-28162611Y1651000D01*
X-27837389Y1651000D01*
X-27624744Y1608702D01*
X-27624744Y1608702D01*
G37*
G36*
X28375256Y1608702D02*
X28481579Y1587553D01*
X28782042Y1463097D01*
X28985010Y1327478D01*
X29052454Y1282413D01*
X29282413Y1052454D01*
X29463098Y782040D01*
X29587553Y481578D01*
X29651000Y162611D01*
X29651000Y-162611D01*
X29587553Y-481578D01*
X29463098Y-782040D01*
X29282413Y-1052454D01*
X29052454Y-1282413D01*
X29052451Y-1282415D01*
X28782042Y-1463097D01*
X28481579Y-1587553D01*
X28375256Y-1608702D01*
X28162611Y-1651000D01*
X27837389Y-1651000D01*
X27624744Y-1608702D01*
X27518421Y-1587553D01*
X27217958Y-1463097D01*
X26947549Y-1282415D01*
X26947546Y-1282413D01*
X26717587Y-1052454D01*
X26536902Y-782040D01*
X26412447Y-481578D01*
X26349000Y-162611D01*
X26349000Y162611D01*
X26412447Y481578D01*
X26536902Y782040D01*
X26717587Y1052454D01*
X26947546Y1282413D01*
X27014990Y1327478D01*
X27217958Y1463097D01*
X27518421Y1587553D01*
X27624744Y1608702D01*
X27837389Y1651000D01*
X28162611Y1651000D01*
X28375256Y1608702D01*
X28375256Y1608702D01*
G37*
G36*
X-22984307Y19700125D02*
X-22947210Y19688872D01*
X-22913029Y19670602D01*
X-22878297Y19642097D01*
X-21857903Y18621703D01*
X-21829398Y18586971D01*
X-21811128Y18552790D01*
X-21799875Y18515693D01*
X-21796076Y18477119D01*
X-21799875Y18438545D01*
X-21811128Y18401448D01*
X-21829398Y18367267D01*
X-21857903Y18332535D01*
X-22489389Y17701049D01*
X-22524121Y17672544D01*
X-22558302Y17654274D01*
X-22595399Y17643021D01*
X-22633973Y17639222D01*
X-22672547Y17643021D01*
X-22709644Y17654274D01*
X-22743825Y17672544D01*
X-22778557Y17701049D01*
X-23798951Y18721443D01*
X-23827456Y18756175D01*
X-23845726Y18790356D01*
X-23856979Y18827453D01*
X-23860778Y18866027D01*
X-23856979Y18904601D01*
X-23845726Y18941698D01*
X-23827456Y18975879D01*
X-23798951Y19010611D01*
X-23167465Y19642097D01*
X-23132733Y19670602D01*
X-23098552Y19688872D01*
X-23061455Y19700125D01*
X-23022881Y19703924D01*
X-22984307Y19700125D01*
X-22984307Y19700125D01*
G37*
G36*
X-21481048Y20921821D02*
X-21358337Y20884596D01*
X-21358335Y20884595D01*
X-21245241Y20824146D01*
X-21201433Y20788193D01*
X-21170948Y20763175D01*
X-20736825Y20329052D01*
X-20675855Y20254760D01*
X-20615404Y20141664D01*
X-20578179Y20018953D01*
X-20565611Y19891334D01*
X-20578179Y19763714D01*
X-20615404Y19641003D01*
X-20615405Y19641001D01*
X-20675854Y19527907D01*
X-20757206Y19428780D01*
X-20856333Y19347428D01*
X-20969427Y19286979D01*
X-20969429Y19286978D01*
X-21092140Y19249753D01*
X-21210058Y19238141D01*
X-21219759Y19237185D01*
X-21219760Y19237185D01*
X-21347379Y19249753D01*
X-21470090Y19286978D01*
X-21470092Y19286979D01*
X-21583185Y19347428D01*
X-21596507Y19358361D01*
X-21657478Y19408399D01*
X-22091601Y19842522D01*
X-22131659Y19891333D01*
X-22152572Y19916815D01*
X-22213021Y20029909D01*
X-22213022Y20029911D01*
X-22250247Y20152622D01*
X-22262815Y20280241D01*
X-22250247Y20407860D01*
X-22213022Y20530571D01*
X-22213021Y20530573D01*
X-22152572Y20643667D01*
X-22071220Y20742794D01*
X-21972093Y20824146D01*
X-21858999Y20884595D01*
X-21858997Y20884596D01*
X-21736286Y20921821D01*
X-21608667Y20934389D01*
X-21481048Y20921821D01*
X-21481048Y20921821D01*
G37*
G36*
X-20066835Y22336034D02*
X-19944124Y22298809D01*
X-19944122Y22298808D01*
X-19831028Y22238359D01*
X-19787220Y22202406D01*
X-19756735Y22177388D01*
X-19322612Y21743265D01*
X-19261642Y21668973D01*
X-19201191Y21555877D01*
X-19163966Y21433166D01*
X-19151398Y21305547D01*
X-19163966Y21177927D01*
X-19201191Y21055216D01*
X-19201192Y21055214D01*
X-19261641Y20942120D01*
X-19342993Y20842993D01*
X-19442120Y20761641D01*
X-19555214Y20701192D01*
X-19555216Y20701191D01*
X-19677927Y20663966D01*
X-19795845Y20652354D01*
X-19805546Y20651398D01*
X-19805547Y20651398D01*
X-19933166Y20663966D01*
X-20055877Y20701191D01*
X-20133711Y20742794D01*
X-20168972Y20761641D01*
X-20182294Y20772574D01*
X-20243265Y20822612D01*
X-20677388Y21256735D01*
X-20717446Y21305546D01*
X-20738359Y21331028D01*
X-20798808Y21444122D01*
X-20798809Y21444124D01*
X-20836034Y21566835D01*
X-20848602Y21694454D01*
X-20836034Y21822073D01*
X-20798809Y21944784D01*
X-20798808Y21944786D01*
X-20738359Y22057880D01*
X-20657007Y22157007D01*
X-20557880Y22238359D01*
X-20444786Y22298808D01*
X-20444784Y22298809D01*
X-20322073Y22336034D01*
X-20194454Y22348602D01*
X-20066835Y22336034D01*
X-20066835Y22336034D01*
G37*
G36*
X-18652621Y23750248D02*
X-18529910Y23713023D01*
X-18529908Y23713022D01*
X-18416814Y23652573D01*
X-18373006Y23616620D01*
X-18342521Y23591602D01*
X-17908398Y23157479D01*
X-17847428Y23083187D01*
X-17786977Y22970091D01*
X-17749752Y22847380D01*
X-17737184Y22719761D01*
X-17749752Y22592141D01*
X-17786977Y22469430D01*
X-17786978Y22469428D01*
X-17847427Y22356334D01*
X-17928779Y22257207D01*
X-18027906Y22175855D01*
X-18141000Y22115406D01*
X-18141002Y22115405D01*
X-18263713Y22078180D01*
X-18381631Y22066568D01*
X-18391332Y22065612D01*
X-18391333Y22065612D01*
X-18518952Y22078180D01*
X-18641663Y22115405D01*
X-18641665Y22115406D01*
X-18754758Y22175855D01*
X-18768080Y22186788D01*
X-18829051Y22236826D01*
X-19263174Y22670949D01*
X-19303232Y22719760D01*
X-19324145Y22745242D01*
X-19384594Y22858336D01*
X-19384595Y22858338D01*
X-19421820Y22981049D01*
X-19434388Y23108668D01*
X-19421820Y23236287D01*
X-19384595Y23358998D01*
X-19384594Y23359000D01*
X-19324145Y23472094D01*
X-19242793Y23571221D01*
X-19143666Y23652573D01*
X-19030572Y23713022D01*
X-19030570Y23713023D01*
X-18907859Y23750248D01*
X-18780240Y23762816D01*
X-18652621Y23750248D01*
X-18652621Y23750248D01*
G37*
G36*
X375256Y29608702D02*
X481579Y29587553D01*
X782042Y29463097D01*
X1048852Y29284820D01*
X1052454Y29282413D01*
X1282413Y29052454D01*
X1463098Y28782040D01*
X1587553Y28481578D01*
X1651000Y28162611D01*
X1651000Y27837389D01*
X1587553Y27518422D01*
X1463098Y27217960D01*
X1282413Y26947546D01*
X1052454Y26717587D01*
X1052451Y26717585D01*
X782042Y26536903D01*
X481579Y26412447D01*
X375256Y26391298D01*
X162611Y26349000D01*
X-162611Y26349000D01*
X-375256Y26391298D01*
X-481579Y26412447D01*
X-782042Y26536903D01*
X-1052451Y26717585D01*
X-1052454Y26717587D01*
X-1282413Y26947546D01*
X-1463098Y27217960D01*
X-1587553Y27518422D01*
X-1651000Y27837389D01*
X-1651000Y28162611D01*
X-1587553Y28481578D01*
X-1463098Y28782040D01*
X-1282413Y29052454D01*
X-1052454Y29282413D01*
X-1048852Y29284820D01*
X-782042Y29463097D01*
X-481579Y29587553D01*
X-375256Y29608702D01*
X-162611Y29651000D01*
X162611Y29651000D01*
X375256Y29608702D01*
X375256Y29608702D01*
G37*
M02*
