G04 #@! TF.GenerationSoftware,KiCad,Pcbnew,(5.0.2)-1*
G04 #@! TF.CreationDate,2019-06-21T17:09:31-07:00*
G04 #@! TF.ProjectId,slip_ring_rotor,736c6970-5f72-4696-9e67-5f726f746f72,rev?*
G04 #@! TF.SameCoordinates,Original*
G04 #@! TF.FileFunction,Legend,Bot*
G04 #@! TF.FilePolarity,Positive*
%FSLAX46Y46*%
G04 Gerber Fmt 4.6, Leading zero omitted, Abs format (unit mm)*
G04 Created by KiCad (PCBNEW (5.0.2)-1) date 6/21/2019 5:09:31 PM*
%MOMM*%
%LPD*%
G01*
G04 APERTURE LIST*
%ADD10C,0.300000*%
%ADD11C,0.120000*%
%ADD12C,0.150000*%
G04 APERTURE END LIST*
D10*
X26869088Y-7484312D02*
X25808428Y-6423652D01*
X25404367Y-6827713D01*
X25353859Y-6979236D01*
X25353859Y-7080251D01*
X25404367Y-7231774D01*
X25555890Y-7383297D01*
X25707413Y-7433804D01*
X25808428Y-7433804D01*
X25959951Y-7383297D01*
X26364012Y-6979236D01*
X25353859Y-8999541D02*
X24798275Y-8443957D01*
X24747768Y-8292434D01*
X24798275Y-8140911D01*
X25000306Y-7938880D01*
X25151829Y-7888373D01*
X25303352Y-8949033D02*
X25454875Y-8898525D01*
X25707413Y-8645987D01*
X25757920Y-8494464D01*
X25707413Y-8342941D01*
X25606397Y-8241926D01*
X25454875Y-8191419D01*
X25303352Y-8241926D01*
X25050814Y-8494464D01*
X24899291Y-8544972D01*
X24141676Y-8797510D02*
X24848783Y-9504617D01*
X24242691Y-8898525D02*
X24141676Y-8898525D01*
X23990153Y-8949033D01*
X23838630Y-9100556D01*
X23788123Y-9252079D01*
X23838630Y-9403602D01*
X24394214Y-9959186D01*
X23384062Y-10868323D02*
X23535585Y-10817815D01*
X23737615Y-10615785D01*
X23788123Y-10464262D01*
X23788123Y-10363247D01*
X23737615Y-10211724D01*
X23434569Y-9908678D01*
X23283047Y-9858170D01*
X23182031Y-9858170D01*
X23030508Y-9908678D01*
X22828478Y-10110708D01*
X22777970Y-10262231D01*
X22525432Y-11827968D02*
X21969848Y-11272384D01*
X21919341Y-11120861D01*
X21969848Y-10969338D01*
X22171879Y-10767308D01*
X22323402Y-10716800D01*
X22474925Y-11777460D02*
X22626447Y-11726952D01*
X22878986Y-11474414D01*
X22929493Y-11322891D01*
X22878986Y-11171369D01*
X22777970Y-11070353D01*
X22626447Y-11019846D01*
X22474925Y-11070353D01*
X22222386Y-11322891D01*
X22070864Y-11373399D01*
X22020356Y-12333044D02*
X20959696Y-11272384D01*
X21515280Y-12029998D02*
X21616295Y-12737105D01*
X20909188Y-12029998D02*
X21717310Y-12029998D01*
X20707158Y-13545227D02*
X20858680Y-13494719D01*
X21060711Y-13292689D01*
X21111219Y-13141166D01*
X21060711Y-12989643D01*
X20656650Y-12585582D01*
X20505127Y-12535075D01*
X20353604Y-12585582D01*
X20151574Y-12787613D01*
X20101066Y-12939136D01*
X20151574Y-13090658D01*
X20252589Y-13191674D01*
X20858680Y-12787613D01*
X19444467Y-14807918D02*
X19343452Y-15009948D01*
X19090914Y-15262486D01*
X18939391Y-15312994D01*
X18838375Y-15312994D01*
X18686853Y-15262486D01*
X18585837Y-15161471D01*
X18535330Y-15009948D01*
X18535330Y-14908933D01*
X18585837Y-14757410D01*
X18737360Y-14504872D01*
X18787868Y-14353349D01*
X18787868Y-14252334D01*
X18737360Y-14100811D01*
X18636345Y-13999796D01*
X18484822Y-13949288D01*
X18383807Y-13949288D01*
X18232284Y-13999796D01*
X17979746Y-14252334D01*
X17878730Y-14454364D01*
X18282791Y-16070608D02*
X18333299Y-15919086D01*
X18282791Y-15767563D01*
X17373654Y-14858425D01*
X17878730Y-16474669D02*
X17171624Y-15767563D01*
X16818070Y-15414009D02*
X16919086Y-15414009D01*
X16919086Y-15515025D01*
X16818070Y-15515025D01*
X16818070Y-15414009D01*
X16919086Y-15515025D01*
X16666547Y-16272639D02*
X17727208Y-17333299D01*
X16717055Y-16323147D02*
X16565532Y-16373654D01*
X16363502Y-16575685D01*
X16312994Y-16727208D01*
X16312994Y-16828223D01*
X16363502Y-16979746D01*
X16666547Y-17282791D01*
X16818070Y-17333299D01*
X16919086Y-17333299D01*
X17070608Y-17282791D01*
X17272639Y-17080761D01*
X17323147Y-16929238D01*
X14999796Y-19353604D02*
X14848273Y-18494975D01*
X15605887Y-18747513D02*
X14545227Y-17686853D01*
X14141166Y-18090914D01*
X14090658Y-18242436D01*
X14090658Y-18343452D01*
X14141166Y-18494975D01*
X14292689Y-18646497D01*
X14444212Y-18697005D01*
X14545227Y-18697005D01*
X14696750Y-18646497D01*
X15100811Y-18242436D01*
X14545227Y-19808173D02*
X13838120Y-19101066D01*
X13484567Y-18747513D02*
X13585582Y-18747513D01*
X13585582Y-18848528D01*
X13484567Y-18848528D01*
X13484567Y-18747513D01*
X13585582Y-18848528D01*
X13333044Y-19606142D02*
X14040151Y-20313249D01*
X13434059Y-19707158D02*
X13333044Y-19707158D01*
X13181521Y-19757665D01*
X13029998Y-19909188D01*
X12979491Y-20060711D01*
X13029998Y-20212234D01*
X13585582Y-20767818D01*
X11918830Y-21020356D02*
X12777460Y-21878986D01*
X12928983Y-21929493D01*
X13029998Y-21929493D01*
X13181521Y-21878986D01*
X13333044Y-21727463D01*
X13383552Y-21575940D01*
X12575430Y-21676955D02*
X12726952Y-21626447D01*
X12928983Y-21424417D01*
X12979491Y-21272894D01*
X12979491Y-21171879D01*
X12928983Y-21020356D01*
X12625937Y-20717310D01*
X12474414Y-20666803D01*
X12373399Y-20666803D01*
X12221876Y-20717310D01*
X12019846Y-20919341D01*
X11969338Y-21070864D01*
X10706647Y-22232539D02*
X11161216Y-23192184D01*
X10201571Y-22737615D01*
X9949033Y-24404367D02*
X10555125Y-23798275D01*
X10252079Y-24101321D02*
X9191419Y-23040661D01*
X9443957Y-23091169D01*
X9645987Y-23091169D01*
X9797510Y-23040661D01*
X9393449Y-24757920D02*
X9393449Y-24858936D01*
X9494464Y-24858936D01*
X9494464Y-24757920D01*
X9393449Y-24757920D01*
X9494464Y-24858936D01*
X7726697Y-24505382D02*
X7625682Y-24606397D01*
X7575175Y-24757920D01*
X7575175Y-24858936D01*
X7625682Y-25010458D01*
X7777205Y-25262997D01*
X8029743Y-25515535D01*
X8282281Y-25667058D01*
X8433804Y-25717565D01*
X8534819Y-25717565D01*
X8686342Y-25667058D01*
X8787358Y-25566042D01*
X8837865Y-25414519D01*
X8837865Y-25313504D01*
X8787358Y-25161981D01*
X8635835Y-24909443D01*
X8383297Y-24656905D01*
X8130758Y-24505382D01*
X7979236Y-24454875D01*
X7878220Y-24454875D01*
X7726697Y-24505382D01*
X22510280Y-15449364D02*
X22358757Y-14590735D01*
X23116371Y-14843273D02*
X22055711Y-13782613D01*
X21651650Y-14186674D01*
X21601142Y-14338197D01*
X21601142Y-14439212D01*
X21651650Y-14590735D01*
X21803173Y-14742258D01*
X21954696Y-14792765D01*
X22055711Y-14792765D01*
X22207234Y-14742258D01*
X22611295Y-14338197D01*
X21904188Y-16055456D02*
X21954696Y-15903933D01*
X21954696Y-15802918D01*
X21904188Y-15651395D01*
X21601142Y-15348349D01*
X21449619Y-15297841D01*
X21348604Y-15297841D01*
X21197081Y-15348349D01*
X21045558Y-15499872D01*
X20995051Y-15651395D01*
X20995051Y-15752410D01*
X21045558Y-15903933D01*
X21348604Y-16206979D01*
X21500127Y-16257486D01*
X21601142Y-16257486D01*
X21752665Y-16206979D01*
X21904188Y-16055456D01*
X20540482Y-16004948D02*
X20136421Y-16409009D01*
X20035406Y-15802918D02*
X20944543Y-16712055D01*
X20995051Y-16863578D01*
X20944543Y-17015101D01*
X20843528Y-17116116D01*
X20338452Y-17621192D02*
X20388959Y-17469669D01*
X20388959Y-17368654D01*
X20338452Y-17217131D01*
X20035406Y-16914086D01*
X19883883Y-16863578D01*
X19782868Y-16863578D01*
X19631345Y-16914086D01*
X19479822Y-17065608D01*
X19429314Y-17217131D01*
X19429314Y-17318147D01*
X19479822Y-17469669D01*
X19782868Y-17772715D01*
X19934391Y-17823223D01*
X20035406Y-17823223D01*
X20186929Y-17772715D01*
X20338452Y-17621192D01*
X19530330Y-18429314D02*
X18823223Y-17722208D01*
X19025253Y-17924238D02*
X18873730Y-17873730D01*
X18772715Y-17873730D01*
X18621192Y-17924238D01*
X18520177Y-18025253D01*
X17156471Y-18681852D02*
X16550380Y-19287944D01*
X17914086Y-20045558D02*
X16853425Y-18984898D01*
X17105963Y-20853680D02*
X17156471Y-20702158D01*
X17156471Y-20601142D01*
X17105963Y-20449619D01*
X16802918Y-20146574D01*
X16651395Y-20096066D01*
X16550380Y-20096066D01*
X16398857Y-20146574D01*
X16247334Y-20298097D01*
X16196826Y-20449619D01*
X16196826Y-20550635D01*
X16247334Y-20702158D01*
X16550380Y-21005203D01*
X16701902Y-21055711D01*
X16802918Y-21055711D01*
X16954441Y-21005203D01*
X17105963Y-20853680D01*
X15590735Y-20954696D02*
X16651395Y-22015356D01*
X15641242Y-21005203D02*
X15489719Y-21055711D01*
X15287689Y-21257741D01*
X15237181Y-21409264D01*
X15237181Y-21510280D01*
X15287689Y-21661802D01*
X15590735Y-21964848D01*
X15742258Y-22015356D01*
X15843273Y-22015356D01*
X15994796Y-21964848D01*
X16196826Y-21762818D01*
X16247334Y-21611295D01*
X25500331Y-13944237D02*
X24894239Y-14550328D01*
X26257945Y-15307943D02*
X25197285Y-14247283D01*
X25601346Y-15964542D02*
X24540686Y-14903882D01*
X25045762Y-15408958D02*
X24439671Y-16015049D01*
X24995255Y-16570633D02*
X23934594Y-15509973D01*
X24490178Y-17075710D02*
X23429518Y-16015049D01*
X23985102Y-17479771D02*
X23884087Y-17681801D01*
X23631549Y-17934339D01*
X23480026Y-17984847D01*
X23379010Y-17984847D01*
X23227488Y-17934339D01*
X23126472Y-17833324D01*
X23075965Y-17681801D01*
X23075965Y-17580786D01*
X23126472Y-17429263D01*
X23277995Y-17176725D01*
X23328503Y-17025202D01*
X23328503Y-16924187D01*
X23277995Y-16772664D01*
X23176980Y-16671649D01*
X23025457Y-16621141D01*
X22924442Y-16621141D01*
X22772919Y-16671649D01*
X22520381Y-16924187D01*
X22419366Y-17126217D01*
X22166827Y-19298045D02*
X22065812Y-19500076D01*
X21813274Y-19752614D01*
X21661751Y-19803122D01*
X21560736Y-19803122D01*
X21409213Y-19752614D01*
X21308198Y-19651599D01*
X21257690Y-19500076D01*
X21257690Y-19399060D01*
X21308198Y-19247538D01*
X21459721Y-18994999D01*
X21510228Y-18843477D01*
X21510228Y-18742461D01*
X21459721Y-18590938D01*
X21358705Y-18489923D01*
X21207183Y-18439416D01*
X21106167Y-18439416D01*
X20954644Y-18489923D01*
X20702106Y-18742461D01*
X20601091Y-18944492D01*
X21156675Y-20409213D02*
X20096015Y-19348553D01*
X20651599Y-20914289D02*
X19590938Y-19853629D01*
X19338400Y-20106167D01*
X19237385Y-20308198D01*
X19237385Y-20510228D01*
X19287893Y-20661751D01*
X19439416Y-20914289D01*
X19590938Y-21065812D01*
X19843477Y-21217335D01*
X19994999Y-21267843D01*
X20197030Y-21267843D01*
X20399060Y-21166827D01*
X20651599Y-20914289D01*
X19035355Y-21419366D02*
X18681801Y-21772919D01*
X19085862Y-22480026D02*
X19590938Y-21974949D01*
X18530278Y-20914289D01*
X18025202Y-21419366D01*
X16762511Y-22682056D02*
X17621141Y-23540686D01*
X17671649Y-23692209D01*
X17671649Y-23793224D01*
X17621141Y-23944747D01*
X17419110Y-24146777D01*
X17267588Y-24197285D01*
X17166572Y-24197285D01*
X17015049Y-24146777D01*
X16156420Y-23288148D01*
X16712004Y-24853884D02*
X15651344Y-23793224D01*
X15247283Y-24197285D01*
X15196775Y-24348808D01*
X15196775Y-24449823D01*
X15247283Y-24601346D01*
X15398805Y-24752869D01*
X15550328Y-24803377D01*
X15651344Y-24803377D01*
X15802866Y-24752869D01*
X16206927Y-24348808D01*
D11*
G04 #@! TO.C,J1*
X-23005204Y15510806D02*
X-23889087Y16394689D01*
X-22121320Y16394689D02*
X-23005204Y15510806D01*
X-20919239Y23833453D02*
X-20565685Y23479899D01*
X-20494975Y23550610D02*
X-20848528Y23904163D01*
X-20636396Y23409188D02*
X-20494975Y23550610D01*
X-20989949Y23762742D02*
X-20636396Y23409188D01*
X-22333452Y22419239D02*
X-21979899Y22065686D01*
X-21909188Y22136396D02*
X-22262742Y22489950D01*
X-22050610Y21994975D02*
X-21909188Y22136396D01*
X-22404163Y22348528D02*
X-22050610Y21994975D01*
X-23747666Y21005025D02*
X-23394112Y20651472D01*
X-23323402Y20722183D02*
X-23676955Y21075736D01*
X-23464823Y20580761D02*
X-23323402Y20722183D01*
X-23818376Y20934315D02*
X-23464823Y20580761D01*
X-17694832Y24936539D02*
X-18126167Y24505204D01*
X-16775593Y24017300D02*
X-17206928Y23585965D01*
X-24850752Y17780618D02*
X-24419417Y18211954D01*
X-23931514Y16861380D02*
X-23500178Y17292715D01*
X-18090812Y21712132D02*
X-17659476Y21280797D01*
X-16711953Y23090990D02*
X-18090812Y21712132D01*
X-19186827Y25565864D02*
X-16711953Y23090990D01*
X-25480077Y19272614D02*
X-19186827Y25565864D01*
X-23005204Y16797740D02*
X-25480077Y19272614D01*
X-21626345Y18176598D02*
X-23005204Y16797740D01*
X-21195010Y17745263D02*
X-21626345Y18176598D01*
X-21689985Y17108867D02*
X-21902117Y16896735D01*
X-21831406Y16826024D02*
X-21972828Y16967446D01*
X-21619274Y17038156D02*
X-21831406Y16826024D01*
X-21760696Y17179578D02*
X-21619274Y17038156D01*
X-15849283Y23090990D02*
X-23005204Y15935070D01*
X-19186827Y26428534D02*
X-15849283Y23090990D01*
X-26342748Y19272614D02*
X-19186827Y26428534D01*
X-23005204Y15935070D02*
X-26342748Y19272614D01*
D12*
X-18808019Y19365211D02*
X-18302943Y18860135D01*
X-18168256Y18792791D01*
X-18033569Y18792791D01*
X-17898882Y18860135D01*
X-17831539Y18927478D01*
X-18808019Y17950997D02*
X-18403958Y18355058D01*
X-18605989Y18153028D02*
X-19313096Y18860135D01*
X-19144737Y18826463D01*
X-19010050Y18826463D01*
X-18909035Y18860135D01*
G04 #@! TD*
M02*
