G04 #@! TF.GenerationSoftware,KiCad,Pcbnew,(5.0.2)-1*
G04 #@! TF.CreationDate,2019-06-21T17:07:53-07:00*
G04 #@! TF.ProjectId,slip_ring,736c6970-5f72-4696-9e67-2e6b69636164,rev?*
G04 #@! TF.SameCoordinates,Original*
G04 #@! TF.FileFunction,Copper,L2,Bot*
G04 #@! TF.FilePolarity,Positive*
%FSLAX46Y46*%
G04 Gerber Fmt 4.6, Leading zero omitted, Abs format (unit mm)*
G04 Created by KiCad (PCBNEW (5.0.2)-1) date 6/21/2019 5:07:53 PM*
%MOMM*%
%LPD*%
G01*
G04 APERTURE LIST*
G04 #@! TA.AperFunction,ComponentPad*
%ADD10O,1.750000X1.200000*%
G04 #@! TD*
G04 #@! TA.AperFunction,Conductor*
%ADD11C,0.100000*%
G04 #@! TD*
G04 #@! TA.AperFunction,ComponentPad*
%ADD12C,1.200000*%
G04 #@! TD*
G04 #@! TA.AperFunction,WasherPad*
%ADD13C,5.500000*%
G04 #@! TD*
G04 #@! TA.AperFunction,ViaPad*
%ADD14C,1.200000*%
G04 #@! TD*
G04 #@! TA.AperFunction,Conductor*
%ADD15C,1.000000*%
G04 #@! TD*
G04 APERTURE END LIST*
D10*
G04 #@! TO.P,J1,4*
G04 #@! TO.N,Net-(J1-Pad4)*
X-41000000Y-46000000D03*
G04 #@! TO.P,J1,3*
G04 #@! TO.N,Net-(J1-Pad3)*
X-41000000Y-44000000D03*
G04 #@! TO.P,J1,2*
G04 #@! TO.N,Net-(J1-Pad2)*
X-41000000Y-42000000D03*
D11*
G04 #@! TD*
G04 #@! TO.N,Net-(J1-Pad1)*
G04 #@! TO.C,J1*
G36*
X-40350495Y-39401204D02*
X-40326227Y-39404804D01*
X-40302428Y-39410765D01*
X-40279329Y-39419030D01*
X-40257150Y-39429520D01*
X-40236107Y-39442132D01*
X-40216401Y-39456747D01*
X-40198223Y-39473223D01*
X-40181747Y-39491401D01*
X-40167132Y-39511107D01*
X-40154520Y-39532150D01*
X-40144030Y-39554329D01*
X-40135765Y-39577428D01*
X-40129804Y-39601227D01*
X-40126204Y-39625495D01*
X-40125000Y-39649999D01*
X-40125000Y-40350001D01*
X-40126204Y-40374505D01*
X-40129804Y-40398773D01*
X-40135765Y-40422572D01*
X-40144030Y-40445671D01*
X-40154520Y-40467850D01*
X-40167132Y-40488893D01*
X-40181747Y-40508599D01*
X-40198223Y-40526777D01*
X-40216401Y-40543253D01*
X-40236107Y-40557868D01*
X-40257150Y-40570480D01*
X-40279329Y-40580970D01*
X-40302428Y-40589235D01*
X-40326227Y-40595196D01*
X-40350495Y-40598796D01*
X-40374999Y-40600000D01*
X-41625001Y-40600000D01*
X-41649505Y-40598796D01*
X-41673773Y-40595196D01*
X-41697572Y-40589235D01*
X-41720671Y-40580970D01*
X-41742850Y-40570480D01*
X-41763893Y-40557868D01*
X-41783599Y-40543253D01*
X-41801777Y-40526777D01*
X-41818253Y-40508599D01*
X-41832868Y-40488893D01*
X-41845480Y-40467850D01*
X-41855970Y-40445671D01*
X-41864235Y-40422572D01*
X-41870196Y-40398773D01*
X-41873796Y-40374505D01*
X-41875000Y-40350001D01*
X-41875000Y-39649999D01*
X-41873796Y-39625495D01*
X-41870196Y-39601227D01*
X-41864235Y-39577428D01*
X-41855970Y-39554329D01*
X-41845480Y-39532150D01*
X-41832868Y-39511107D01*
X-41818253Y-39491401D01*
X-41801777Y-39473223D01*
X-41783599Y-39456747D01*
X-41763893Y-39442132D01*
X-41742850Y-39429520D01*
X-41720671Y-39419030D01*
X-41697572Y-39410765D01*
X-41673773Y-39404804D01*
X-41649505Y-39401204D01*
X-41625001Y-39400000D01*
X-40374999Y-39400000D01*
X-40350495Y-39401204D01*
X-40350495Y-39401204D01*
G37*
D12*
G04 #@! TO.P,J1,1*
G04 #@! TO.N,Net-(J1-Pad1)*
X-41000000Y-40000000D03*
G04 #@! TD*
D13*
G04 #@! TO.P,H1,*
G04 #@! TO.N,*
X30000000Y-75000000D03*
G04 #@! TD*
G04 #@! TO.P,H2,*
G04 #@! TO.N,*
X-30000000Y-75000000D03*
G04 #@! TD*
G04 #@! TO.P,H3,*
G04 #@! TO.N,*
X-30000000Y-15000000D03*
G04 #@! TD*
G04 #@! TO.P,H4,*
G04 #@! TO.N,*
X30000000Y-15000000D03*
G04 #@! TD*
D14*
G04 #@! TO.N,Net-(J1-Pad1)*
X-17500000Y-40000000D03*
G04 #@! TO.N,Net-(J1-Pad2)*
X-24000000Y-42000000D03*
G04 #@! TO.N,Net-(J1-Pad3)*
X-30000000Y-44000000D03*
G04 #@! TD*
D15*
G04 #@! TO.N,Net-(J1-Pad1)*
X-41000000Y-40000000D02*
X-17500000Y-40000000D01*
G04 #@! TO.N,Net-(J1-Pad2)*
X-41000000Y-42000000D02*
X-24000000Y-42000000D01*
G04 #@! TO.N,Net-(J1-Pad3)*
X-41000000Y-44000000D02*
X-30000000Y-44000000D01*
G04 #@! TD*
M02*
