G04 #@! TF.GenerationSoftware,KiCad,Pcbnew,(5.0.2)-1*
G04 #@! TF.CreationDate,2019-06-21T17:07:53-07:00*
G04 #@! TF.ProjectId,slip_ring,736c6970-5f72-4696-9e67-2e6b69636164,rev?*
G04 #@! TF.SameCoordinates,Original*
G04 #@! TF.FileFunction,Legend,Bot*
G04 #@! TF.FilePolarity,Positive*
%FSLAX46Y46*%
G04 Gerber Fmt 4.6, Leading zero omitted, Abs format (unit mm)*
G04 Created by KiCad (PCBNEW (5.0.2)-1) date 6/21/2019 5:07:53 PM*
%MOMM*%
%LPD*%
G01*
G04 APERTURE LIST*
%ADD10C,0.300000*%
%ADD11C,0.120000*%
%ADD12C,0.150000*%
G04 APERTURE END LIST*
D10*
X29878571Y-34378571D02*
X28378571Y-34378571D01*
X28378571Y-34950000D01*
X28450000Y-35092857D01*
X28521428Y-35164285D01*
X28664285Y-35235714D01*
X28878571Y-35235714D01*
X29021428Y-35164285D01*
X29092857Y-35092857D01*
X29164285Y-34950000D01*
X29164285Y-34378571D01*
X29878571Y-36521428D02*
X29092857Y-36521428D01*
X28950000Y-36450000D01*
X28878571Y-36307142D01*
X28878571Y-36021428D01*
X28950000Y-35878571D01*
X29807142Y-36521428D02*
X29878571Y-36378571D01*
X29878571Y-36021428D01*
X29807142Y-35878571D01*
X29664285Y-35807142D01*
X29521428Y-35807142D01*
X29378571Y-35878571D01*
X29307142Y-36021428D01*
X29307142Y-36378571D01*
X29235714Y-36521428D01*
X28878571Y-37235714D02*
X29878571Y-37235714D01*
X29021428Y-37235714D02*
X28950000Y-37307142D01*
X28878571Y-37450000D01*
X28878571Y-37664285D01*
X28950000Y-37807142D01*
X29092857Y-37878571D01*
X29878571Y-37878571D01*
X29807142Y-39235714D02*
X29878571Y-39092857D01*
X29878571Y-38807142D01*
X29807142Y-38664285D01*
X29735714Y-38592857D01*
X29592857Y-38521428D01*
X29164285Y-38521428D01*
X29021428Y-38592857D01*
X28950000Y-38664285D01*
X28878571Y-38807142D01*
X28878571Y-39092857D01*
X28950000Y-39235714D01*
X29878571Y-40521428D02*
X29092857Y-40521428D01*
X28950000Y-40450000D01*
X28878571Y-40307142D01*
X28878571Y-40021428D01*
X28950000Y-39878571D01*
X29807142Y-40521428D02*
X29878571Y-40378571D01*
X29878571Y-40021428D01*
X29807142Y-39878571D01*
X29664285Y-39807142D01*
X29521428Y-39807142D01*
X29378571Y-39878571D01*
X29307142Y-40021428D01*
X29307142Y-40378571D01*
X29235714Y-40521428D01*
X29878571Y-41235714D02*
X28378571Y-41235714D01*
X29307142Y-41378571D02*
X29878571Y-41807142D01*
X28878571Y-41807142D02*
X29450000Y-41235714D01*
X29807142Y-43021428D02*
X29878571Y-42878571D01*
X29878571Y-42592857D01*
X29807142Y-42450000D01*
X29664285Y-42378571D01*
X29092857Y-42378571D01*
X28950000Y-42450000D01*
X28878571Y-42592857D01*
X28878571Y-42878571D01*
X28950000Y-43021428D01*
X29092857Y-43092857D01*
X29235714Y-43092857D01*
X29378571Y-42378571D01*
X29807142Y-44807142D02*
X29878571Y-45021428D01*
X29878571Y-45378571D01*
X29807142Y-45521428D01*
X29735714Y-45592857D01*
X29592857Y-45664285D01*
X29450000Y-45664285D01*
X29307142Y-45592857D01*
X29235714Y-45521428D01*
X29164285Y-45378571D01*
X29092857Y-45092857D01*
X29021428Y-44950000D01*
X28950000Y-44878571D01*
X28807142Y-44807142D01*
X28664285Y-44807142D01*
X28521428Y-44878571D01*
X28450000Y-44950000D01*
X28378571Y-45092857D01*
X28378571Y-45450000D01*
X28450000Y-45664285D01*
X29878571Y-46521428D02*
X29807142Y-46378571D01*
X29664285Y-46307142D01*
X28378571Y-46307142D01*
X29878571Y-47092857D02*
X28878571Y-47092857D01*
X28378571Y-47092857D02*
X28450000Y-47021428D01*
X28521428Y-47092857D01*
X28450000Y-47164285D01*
X28378571Y-47092857D01*
X28521428Y-47092857D01*
X28878571Y-47807142D02*
X30378571Y-47807142D01*
X28950000Y-47807142D02*
X28878571Y-47950000D01*
X28878571Y-48235714D01*
X28950000Y-48378571D01*
X29021428Y-48450000D01*
X29164285Y-48521428D01*
X29592857Y-48521428D01*
X29735714Y-48450000D01*
X29807142Y-48378571D01*
X29878571Y-48235714D01*
X29878571Y-47950000D01*
X29807142Y-47807142D01*
X29878571Y-51164285D02*
X29164285Y-50664285D01*
X29878571Y-50307142D02*
X28378571Y-50307142D01*
X28378571Y-50878571D01*
X28450000Y-51021428D01*
X28521428Y-51092857D01*
X28664285Y-51164285D01*
X28878571Y-51164285D01*
X29021428Y-51092857D01*
X29092857Y-51021428D01*
X29164285Y-50878571D01*
X29164285Y-50307142D01*
X29878571Y-51807142D02*
X28878571Y-51807142D01*
X28378571Y-51807142D02*
X28450000Y-51735714D01*
X28521428Y-51807142D01*
X28450000Y-51878571D01*
X28378571Y-51807142D01*
X28521428Y-51807142D01*
X28878571Y-52521428D02*
X29878571Y-52521428D01*
X29021428Y-52521428D02*
X28950000Y-52592857D01*
X28878571Y-52735714D01*
X28878571Y-52950000D01*
X28950000Y-53092857D01*
X29092857Y-53164285D01*
X29878571Y-53164285D01*
X28878571Y-54521428D02*
X30092857Y-54521428D01*
X30235714Y-54450000D01*
X30307142Y-54378571D01*
X30378571Y-54235714D01*
X30378571Y-54021428D01*
X30307142Y-53878571D01*
X29807142Y-54521428D02*
X29878571Y-54378571D01*
X29878571Y-54092857D01*
X29807142Y-53950000D01*
X29735714Y-53878571D01*
X29592857Y-53807142D01*
X29164285Y-53807142D01*
X29021428Y-53878571D01*
X28950000Y-53950000D01*
X28878571Y-54092857D01*
X28878571Y-54378571D01*
X28950000Y-54521428D01*
X31642857Y-37378571D02*
X31714285Y-37592857D01*
X31785714Y-37664285D01*
X31928571Y-37735714D01*
X32142857Y-37735714D01*
X32285714Y-37664285D01*
X32357142Y-37592857D01*
X32428571Y-37450000D01*
X32428571Y-36878571D01*
X30928571Y-36878571D01*
X30928571Y-37378571D01*
X31000000Y-37521428D01*
X31071428Y-37592857D01*
X31214285Y-37664285D01*
X31357142Y-37664285D01*
X31500000Y-37592857D01*
X31571428Y-37521428D01*
X31642857Y-37378571D01*
X31642857Y-36878571D01*
X32428571Y-38592857D02*
X32357142Y-38450000D01*
X32285714Y-38378571D01*
X32142857Y-38307142D01*
X31714285Y-38307142D01*
X31571428Y-38378571D01*
X31500000Y-38450000D01*
X31428571Y-38592857D01*
X31428571Y-38807142D01*
X31500000Y-38950000D01*
X31571428Y-39021428D01*
X31714285Y-39092857D01*
X32142857Y-39092857D01*
X32285714Y-39021428D01*
X32357142Y-38950000D01*
X32428571Y-38807142D01*
X32428571Y-38592857D01*
X31428571Y-39521428D02*
X31428571Y-40092857D01*
X30928571Y-39735714D02*
X32214285Y-39735714D01*
X32357142Y-39807142D01*
X32428571Y-39950000D01*
X32428571Y-40092857D01*
X31428571Y-40378571D02*
X31428571Y-40950000D01*
X30928571Y-40592857D02*
X32214285Y-40592857D01*
X32357142Y-40664285D01*
X32428571Y-40807142D01*
X32428571Y-40950000D01*
X32428571Y-41664285D02*
X32357142Y-41521428D01*
X32285714Y-41450000D01*
X32142857Y-41378571D01*
X31714285Y-41378571D01*
X31571428Y-41450000D01*
X31500000Y-41521428D01*
X31428571Y-41664285D01*
X31428571Y-41878571D01*
X31500000Y-42021428D01*
X31571428Y-42092857D01*
X31714285Y-42164285D01*
X32142857Y-42164285D01*
X32285714Y-42092857D01*
X32357142Y-42021428D01*
X32428571Y-41878571D01*
X32428571Y-41664285D01*
X32428571Y-42807142D02*
X31428571Y-42807142D01*
X31571428Y-42807142D02*
X31500000Y-42878571D01*
X31428571Y-43021428D01*
X31428571Y-43235714D01*
X31500000Y-43378571D01*
X31642857Y-43450000D01*
X32428571Y-43450000D01*
X31642857Y-43450000D02*
X31500000Y-43521428D01*
X31428571Y-43664285D01*
X31428571Y-43878571D01*
X31500000Y-44021428D01*
X31642857Y-44092857D01*
X32428571Y-44092857D01*
X32357142Y-45878571D02*
X32428571Y-46092857D01*
X32428571Y-46450000D01*
X32357142Y-46592857D01*
X32285714Y-46664285D01*
X32142857Y-46735714D01*
X32000000Y-46735714D01*
X31857142Y-46664285D01*
X31785714Y-46592857D01*
X31714285Y-46450000D01*
X31642857Y-46164285D01*
X31571428Y-46021428D01*
X31500000Y-45950000D01*
X31357142Y-45878571D01*
X31214285Y-45878571D01*
X31071428Y-45950000D01*
X31000000Y-46021428D01*
X30928571Y-46164285D01*
X30928571Y-46521428D01*
X31000000Y-46735714D01*
X31428571Y-47164285D02*
X31428571Y-47735714D01*
X30928571Y-47378571D02*
X32214285Y-47378571D01*
X32357142Y-47450000D01*
X32428571Y-47592857D01*
X32428571Y-47735714D01*
X32428571Y-48878571D02*
X31642857Y-48878571D01*
X31500000Y-48807142D01*
X31428571Y-48664285D01*
X31428571Y-48378571D01*
X31500000Y-48235714D01*
X32357142Y-48878571D02*
X32428571Y-48735714D01*
X32428571Y-48378571D01*
X32357142Y-48235714D01*
X32214285Y-48164285D01*
X32071428Y-48164285D01*
X31928571Y-48235714D01*
X31857142Y-48378571D01*
X31857142Y-48735714D01*
X31785714Y-48878571D01*
X31428571Y-49378571D02*
X31428571Y-49950000D01*
X30928571Y-49592857D02*
X32214285Y-49592857D01*
X32357142Y-49664285D01*
X32428571Y-49807142D01*
X32428571Y-49950000D01*
X32428571Y-50664285D02*
X32357142Y-50521428D01*
X32285714Y-50450000D01*
X32142857Y-50378571D01*
X31714285Y-50378571D01*
X31571428Y-50450000D01*
X31500000Y-50521428D01*
X31428571Y-50664285D01*
X31428571Y-50878571D01*
X31500000Y-51021428D01*
X31571428Y-51092857D01*
X31714285Y-51164285D01*
X32142857Y-51164285D01*
X32285714Y-51092857D01*
X32357142Y-51021428D01*
X32428571Y-50878571D01*
X32428571Y-50664285D01*
X32428571Y-51807142D02*
X31428571Y-51807142D01*
X31714285Y-51807142D02*
X31571428Y-51878571D01*
X31500000Y-51950000D01*
X31428571Y-52092857D01*
X31428571Y-52235714D01*
X33478571Y-35342857D02*
X33478571Y-36200000D01*
X34978571Y-35771428D02*
X33478571Y-35771428D01*
X34978571Y-36700000D02*
X33478571Y-36700000D01*
X34192857Y-36700000D02*
X34192857Y-37557142D01*
X34978571Y-37557142D02*
X33478571Y-37557142D01*
X34978571Y-38271428D02*
X33478571Y-38271428D01*
X34907142Y-38914285D02*
X34978571Y-39128571D01*
X34978571Y-39485714D01*
X34907142Y-39628571D01*
X34835714Y-39700000D01*
X34692857Y-39771428D01*
X34550000Y-39771428D01*
X34407142Y-39700000D01*
X34335714Y-39628571D01*
X34264285Y-39485714D01*
X34192857Y-39200000D01*
X34121428Y-39057142D01*
X34050000Y-38985714D01*
X33907142Y-38914285D01*
X33764285Y-38914285D01*
X33621428Y-38985714D01*
X33550000Y-39057142D01*
X33478571Y-39200000D01*
X33478571Y-39557142D01*
X33550000Y-39771428D01*
X34907142Y-41485714D02*
X34978571Y-41700000D01*
X34978571Y-42057142D01*
X34907142Y-42200000D01*
X34835714Y-42271428D01*
X34692857Y-42342857D01*
X34550000Y-42342857D01*
X34407142Y-42271428D01*
X34335714Y-42200000D01*
X34264285Y-42057142D01*
X34192857Y-41771428D01*
X34121428Y-41628571D01*
X34050000Y-41557142D01*
X33907142Y-41485714D01*
X33764285Y-41485714D01*
X33621428Y-41557142D01*
X33550000Y-41628571D01*
X33478571Y-41771428D01*
X33478571Y-42128571D01*
X33550000Y-42342857D01*
X34978571Y-42985714D02*
X33478571Y-42985714D01*
X34978571Y-43700000D02*
X33478571Y-43700000D01*
X33478571Y-44057142D01*
X33550000Y-44271428D01*
X33692857Y-44414285D01*
X33835714Y-44485714D01*
X34121428Y-44557142D01*
X34335714Y-44557142D01*
X34621428Y-44485714D01*
X34764285Y-44414285D01*
X34907142Y-44271428D01*
X34978571Y-44057142D01*
X34978571Y-43700000D01*
X34192857Y-45200000D02*
X34192857Y-45700000D01*
X34978571Y-45914285D02*
X34978571Y-45200000D01*
X33478571Y-45200000D01*
X33478571Y-45914285D01*
X34978571Y-47700000D02*
X33478571Y-47700000D01*
X33478571Y-48057142D01*
X33550000Y-48271428D01*
X33692857Y-48414285D01*
X33835714Y-48485714D01*
X34121428Y-48557142D01*
X34335714Y-48557142D01*
X34621428Y-48485714D01*
X34764285Y-48414285D01*
X34907142Y-48271428D01*
X34978571Y-48057142D01*
X34978571Y-47700000D01*
X33478571Y-49485714D02*
X33478571Y-49771428D01*
X33550000Y-49914285D01*
X33692857Y-50057142D01*
X33978571Y-50128571D01*
X34478571Y-50128571D01*
X34764285Y-50057142D01*
X34907142Y-49914285D01*
X34978571Y-49771428D01*
X34978571Y-49485714D01*
X34907142Y-49342857D01*
X34764285Y-49200000D01*
X34478571Y-49128571D01*
X33978571Y-49128571D01*
X33692857Y-49200000D01*
X33550000Y-49342857D01*
X33478571Y-49485714D01*
X33478571Y-50628571D02*
X34978571Y-50985714D01*
X33907142Y-51271428D01*
X34978571Y-51557142D01*
X33478571Y-51914285D01*
X34978571Y-52485714D02*
X33478571Y-52485714D01*
X34978571Y-53342857D01*
X33478571Y-53342857D01*
D11*
G04 #@! TO.C,J1*
X-43110000Y-37640000D02*
X-41860000Y-37640000D01*
X-43110000Y-38890000D02*
X-43110000Y-37640000D01*
X-38700000Y-45000000D02*
X-39200000Y-45000000D01*
X-39200000Y-45100000D02*
X-38700000Y-45100000D01*
X-39200000Y-44900000D02*
X-39200000Y-45100000D01*
X-38700000Y-44900000D02*
X-39200000Y-44900000D01*
X-38700000Y-43000000D02*
X-39200000Y-43000000D01*
X-39200000Y-43100000D02*
X-38700000Y-43100000D01*
X-39200000Y-42900000D02*
X-39200000Y-43100000D01*
X-38700000Y-42900000D02*
X-39200000Y-42900000D01*
X-38700000Y-41000000D02*
X-39200000Y-41000000D01*
X-39200000Y-41100000D02*
X-38700000Y-41100000D01*
X-39200000Y-40900000D02*
X-39200000Y-41100000D01*
X-38700000Y-40900000D02*
X-39200000Y-40900000D01*
X-40200000Y-48060000D02*
X-40200000Y-47450000D01*
X-41500000Y-48060000D02*
X-41500000Y-47450000D01*
X-40200000Y-37940000D02*
X-40200000Y-38550000D01*
X-41500000Y-37940000D02*
X-41500000Y-38550000D01*
X-42200000Y-45500000D02*
X-42810000Y-45500000D01*
X-42200000Y-47450000D02*
X-42200000Y-45500000D01*
X-38700000Y-47450000D02*
X-42200000Y-47450000D01*
X-38700000Y-38550000D02*
X-38700000Y-47450000D01*
X-42200000Y-38550000D02*
X-38700000Y-38550000D01*
X-42200000Y-40500000D02*
X-42200000Y-38550000D01*
X-42810000Y-40500000D02*
X-42200000Y-40500000D01*
X-42910000Y-39700000D02*
X-42910000Y-39400000D01*
X-43010000Y-39400000D02*
X-42810000Y-39400000D01*
X-43010000Y-39700000D02*
X-43010000Y-39400000D01*
X-42810000Y-39700000D02*
X-43010000Y-39700000D01*
X-42810000Y-48060000D02*
X-42810000Y-37940000D01*
X-38090000Y-48060000D02*
X-42810000Y-48060000D01*
X-38090000Y-37940000D02*
X-38090000Y-48060000D01*
X-42810000Y-37940000D02*
X-38090000Y-37940000D01*
D12*
X-44447619Y-42666666D02*
X-43733333Y-42666666D01*
X-43590476Y-42619047D01*
X-43495238Y-42523809D01*
X-43447619Y-42380952D01*
X-43447619Y-42285714D01*
X-43447619Y-43666666D02*
X-43447619Y-43095238D01*
X-43447619Y-43380952D02*
X-44447619Y-43380952D01*
X-44304761Y-43285714D01*
X-44209523Y-43190476D01*
X-44161904Y-43095238D01*
G04 #@! TD*
M02*
