G04 #@! TF.GenerationSoftware,KiCad,Pcbnew,(5.0.2)-1*
G04 #@! TF.CreationDate,2019-06-21T17:07:53-07:00*
G04 #@! TF.ProjectId,slip_ring,736c6970-5f72-4696-9e67-2e6b69636164,rev?*
G04 #@! TF.SameCoordinates,Original*
G04 #@! TF.FileFunction,Copper,L1,Top*
G04 #@! TF.FilePolarity,Positive*
%FSLAX46Y46*%
G04 Gerber Fmt 4.6, Leading zero omitted, Abs format (unit mm)*
G04 Created by KiCad (PCBNEW (5.0.2)-1) date 6/21/2019 5:07:53 PM*
%MOMM*%
%LPD*%
G01*
G04 APERTURE LIST*
G04 #@! TA.AperFunction,SMDPad,CuDef*
%ADD10C,5.000000*%
G04 #@! TD*
G04 #@! TA.AperFunction,Conductor*
%ADD11C,0.100000*%
G04 #@! TD*
G04 #@! TA.AperFunction,ComponentPad*
%ADD12O,1.750000X1.200000*%
G04 #@! TD*
G04 #@! TA.AperFunction,ComponentPad*
%ADD13C,1.200000*%
G04 #@! TD*
G04 #@! TA.AperFunction,WasherPad*
%ADD14C,5.500000*%
G04 #@! TD*
G04 #@! TA.AperFunction,ViaPad*
%ADD15C,1.200000*%
G04 #@! TD*
G04 #@! TA.AperFunction,Conductor*
%ADD16C,1.000000*%
G04 #@! TD*
G04 APERTURE END LIST*
D10*
G04 #@! TO.P,U1,4*
G04 #@! TO.N,Net-(J1-Pad4)*
X-36000000Y-45000000D03*
D11*
G04 #@! TD*
G04 #@! TO.N,Net-(J1-Pad4)*
G04 #@! TO.C,U1*
G36*
X2953683Y-6613469D02*
X6685455Y-7084902D01*
X10353413Y-7918241D01*
X13922546Y-9105534D01*
X17358785Y-10635446D01*
X20629332Y-12493375D01*
X23702967Y-14661586D01*
X26550352Y-17119383D01*
X29144310Y-19843307D01*
X31460079Y-22807356D01*
X33475555Y-25983238D01*
X35171500Y-29340639D01*
X36531726Y-32847512D01*
X37543250Y-36470383D01*
X38196416Y-40174671D01*
X38484989Y-43925017D01*
X38500000Y-45000000D01*
X38316255Y-48756942D01*
X37766773Y-52478023D01*
X36856801Y-56127724D01*
X35595022Y-59671209D01*
X33993482Y-63074655D01*
X32067468Y-66305575D01*
X29835363Y-69333128D01*
X27318473Y-72128417D01*
X24540824Y-74664760D01*
X21528927Y-76917947D01*
X18311532Y-78866470D01*
X14919350Y-80491731D01*
X11384760Y-81778217D01*
X7741500Y-82713647D01*
X4024346Y-83289093D01*
X268779Y-83499062D01*
X-3489354Y-83341549D01*
X-7214181Y-82818059D01*
X-10870146Y-81933588D01*
X-14422354Y-80696578D01*
X-17836897Y-79118838D01*
X-21081184Y-77215426D01*
X-24124247Y-75004512D01*
X-26937039Y-72507198D01*
X-29492711Y-69747323D01*
X-31766870Y-66751230D01*
X-33737807Y-63547516D01*
X-35386711Y-60166764D01*
X-36697841Y-56641241D01*
X-37658683Y-53004600D01*
X-38260065Y-49291554D01*
X-38496247Y-45537544D01*
X-38485746Y-45236822D01*
X-38496989Y-45122669D01*
X-38496989Y-44877331D01*
X-38472941Y-44633174D01*
X-38462904Y-44582712D01*
X-38461143Y-44532267D01*
X-33496735Y-44532267D01*
X-33382511Y-47803208D01*
X-32949644Y-51047391D01*
X-32202267Y-54233851D01*
X-31147512Y-57332173D01*
X-29795449Y-60312781D01*
X-28158981Y-63147225D01*
X-26253731Y-65808451D01*
X-24097883Y-68271055D01*
X-21712017Y-70511533D01*
X-19118905Y-72508499D01*
X-16343299Y-74242890D01*
X-13411693Y-75698151D01*
X-10352069Y-76860393D01*
X-7193633Y-77718521D01*
X-3966533Y-78264345D01*
X-701571Y-78492653D01*
X2570087Y-78401267D01*
X5817214Y-77991060D01*
X9008814Y-77265946D01*
X12114423Y-76232847D01*
X15104398Y-74901625D01*
X17950198Y-73284986D01*
X20624659Y-71398360D01*
X23102255Y-69259757D01*
X25359334Y-66889590D01*
X27374354Y-64310483D01*
X29128080Y-61547053D01*
X30603773Y-58625678D01*
X31787346Y-55574243D01*
X32667503Y-52421875D01*
X33235842Y-49198663D01*
X33486939Y-45935375D01*
X33500000Y-45000000D01*
X33340118Y-41730973D01*
X32861998Y-38493149D01*
X32070203Y-35317435D01*
X30972292Y-32234142D01*
X29578744Y-29272703D01*
X27902862Y-26461383D01*
X25960640Y-23827018D01*
X23770620Y-21394754D01*
X21353704Y-19187806D01*
X18732962Y-17227241D01*
X15933411Y-15531773D01*
X12981772Y-14117584D01*
X9906220Y-12998175D01*
X6736110Y-12184229D01*
X3501704Y-11683517D01*
X233872Y-11500816D01*
X-3036191Y-11637873D01*
X-6277274Y-12093377D01*
X-9458439Y-12862982D01*
X-12549321Y-13939341D01*
X-15520417Y-15312180D01*
X-18343368Y-16968395D01*
X-20991228Y-18892178D01*
X-23438722Y-21065165D01*
X-25662489Y-23466615D01*
X-27641302Y-26073605D01*
X-29356274Y-28861252D01*
X-30791034Y-31802946D01*
X-31931887Y-34870609D01*
X-32767945Y-38034958D01*
X-33291225Y-41265791D01*
X-33496735Y-44532267D01*
X-38461143Y-44532267D01*
X-38364975Y-41778403D01*
X-37867502Y-38050013D01*
X-37008575Y-34387962D01*
X-35796395Y-30827205D01*
X-34242530Y-27401730D01*
X-32361814Y-24144234D01*
X-30172198Y-21085810D01*
X-27694582Y-18255653D01*
X-24952616Y-15680775D01*
X-21972472Y-13385755D01*
X-18782597Y-11392500D01*
X-15413438Y-9720035D01*
X-11897154Y-8384324D01*
X-8267310Y-7398117D01*
X-4558553Y-6770828D01*
X-806283Y-6508444D01*
X2953683Y-6613469D01*
X2953683Y-6613469D01*
G37*
D10*
G04 #@! TO.P,U1,3*
G04 #@! TO.N,Net-(J1-Pad3)*
X-30000000Y-45000000D03*
D11*
G04 #@! TD*
G04 #@! TO.N,Net-(J1-Pad3)*
G04 #@! TO.C,U1*
G36*
X2493368Y-12595786D02*
X5643566Y-12993748D01*
X8739894Y-13697217D01*
X11752799Y-14699476D01*
X14653520Y-15990961D01*
X17414371Y-17559342D01*
X20008998Y-19389651D01*
X22412635Y-21464415D01*
X24602339Y-23763830D01*
X26557209Y-26265950D01*
X28258585Y-28946889D01*
X29690227Y-31781059D01*
X30838470Y-34741406D01*
X31692354Y-37799674D01*
X32243728Y-40926670D01*
X32487329Y-44092547D01*
X32500000Y-45000000D01*
X32344890Y-48171444D01*
X31881043Y-51312616D01*
X31112884Y-54393533D01*
X30047746Y-57384787D01*
X28695797Y-60257826D01*
X27069940Y-62985225D01*
X25185696Y-65540952D01*
X23061049Y-67900612D01*
X20716280Y-70041680D01*
X18173769Y-71943721D01*
X15457787Y-73588579D01*
X12594257Y-74960552D01*
X9610512Y-76046547D01*
X6535032Y-76836196D01*
X3397175Y-77321962D01*
X226891Y-77499208D01*
X-2945559Y-77366243D01*
X-6089893Y-76924336D01*
X-9176097Y-76177704D01*
X-12174714Y-75133475D01*
X-15057121Y-73801616D01*
X-17795805Y-72194840D01*
X-20364624Y-70328484D01*
X-22739059Y-68220362D01*
X-24896444Y-65890597D01*
X-26816189Y-63361428D01*
X-28479967Y-60656994D01*
X-29871899Y-57803112D01*
X-30978697Y-54827021D01*
X-31789797Y-51757130D01*
X-32297457Y-48622740D01*
X-32496832Y-45453771D01*
X-32488337Y-45210510D01*
X-32496989Y-45122669D01*
X-32496989Y-44877331D01*
X-32472941Y-44633174D01*
X-32469534Y-44616040D01*
X-27497319Y-44616040D01*
X-27403554Y-47301141D01*
X-27048215Y-49964276D01*
X-26434697Y-52580027D01*
X-25568853Y-55123425D01*
X-24458950Y-57570193D01*
X-23115582Y-59896976D01*
X-21551570Y-62081564D01*
X-19781845Y-64103105D01*
X-17823297Y-65942303D01*
X-15694623Y-67581603D01*
X-13416141Y-69005357D01*
X-11009598Y-70199975D01*
X-8497967Y-71154054D01*
X-5905221Y-71858488D01*
X-3256109Y-72306551D01*
X-575917Y-72493969D01*
X2109773Y-72418951D01*
X4775325Y-72082213D01*
X7395295Y-71486971D01*
X9944676Y-70638905D01*
X12399132Y-69546110D01*
X14735237Y-68219018D01*
X16930691Y-66670296D01*
X18964537Y-64914726D01*
X20817364Y-62969067D01*
X22471485Y-60851889D01*
X23911111Y-58583401D01*
X25122500Y-56185258D01*
X26094090Y-53680349D01*
X26816607Y-51092584D01*
X27283154Y-48446664D01*
X27489278Y-45767845D01*
X27500000Y-45000000D01*
X27368753Y-42316470D01*
X26976267Y-39658555D01*
X26326286Y-37051626D01*
X25425016Y-34520565D01*
X24281059Y-32089532D01*
X22905334Y-29781732D01*
X21310973Y-27619194D01*
X19513195Y-25622559D01*
X17529160Y-23810886D01*
X15377805Y-22201467D01*
X13079666Y-20809664D01*
X10656679Y-19648763D01*
X8131971Y-18729845D01*
X5529643Y-18061681D01*
X2874533Y-17650648D01*
X191985Y-17500670D01*
X-2492396Y-17613179D01*
X-5152986Y-17987101D01*
X-7764390Y-18618866D01*
X-10301681Y-19502444D01*
X-12740641Y-20629402D01*
X-15057989Y-21988981D01*
X-17231605Y-23568206D01*
X-19240742Y-25352001D01*
X-21066222Y-27323341D01*
X-22690621Y-29463407D01*
X-24098434Y-31751774D01*
X-25276222Y-34166597D01*
X-26212743Y-36684828D01*
X-26899059Y-39282429D01*
X-27328618Y-41934604D01*
X-27497319Y-44616040D01*
X-32469534Y-44616040D01*
X-32467162Y-44604118D01*
X-32386018Y-42280470D01*
X-31966073Y-39133128D01*
X-31241005Y-36041786D01*
X-30217736Y-33035952D01*
X-28906032Y-30144317D01*
X-27318415Y-27394483D01*
X-25470037Y-24812697D01*
X-23378544Y-22423603D01*
X-21063897Y-20250005D01*
X-18548191Y-18312651D01*
X-15855439Y-16630032D01*
X-13011344Y-15218211D01*
X-10043052Y-14090663D01*
X-6978898Y-13258151D01*
X-3848129Y-12728621D01*
X-680629Y-12507128D01*
X2493368Y-12595786D01*
X2493368Y-12595786D01*
G37*
D10*
G04 #@! TO.P,U1,2*
G04 #@! TO.N,Net-(J1-Pad2)*
X-24000000Y-45000000D03*
D11*
G04 #@! TD*
G04 #@! TO.N,Net-(J1-Pad2)*
G04 #@! TO.C,U1*
G36*
X2033054Y-18578102D02*
X4601677Y-18902595D01*
X7126375Y-19476192D01*
X9583051Y-20293419D01*
X11948255Y-21346476D01*
X14199410Y-22625310D01*
X16315029Y-24117715D01*
X18274918Y-25809446D01*
X20060369Y-27684354D01*
X21654340Y-29724544D01*
X23041616Y-31910541D01*
X24208955Y-34221479D01*
X25145214Y-36635301D01*
X25841458Y-39128965D01*
X26291040Y-41678669D01*
X26489668Y-44260077D01*
X26500000Y-45000000D01*
X26373526Y-47585947D01*
X25995312Y-50147210D01*
X25368967Y-52659343D01*
X24500470Y-55098365D01*
X23398111Y-57440996D01*
X22072413Y-59664876D01*
X20536029Y-61748777D01*
X18803625Y-63672807D01*
X16891736Y-65418601D01*
X14818612Y-66969496D01*
X12604042Y-68310687D01*
X10269163Y-69429374D01*
X7836263Y-70314877D01*
X5328565Y-70958744D01*
X2770004Y-71354830D01*
X185003Y-71499354D01*
X-2401763Y-71390937D01*
X-4965605Y-71030612D01*
X-7482049Y-70421820D01*
X-9927075Y-69570372D01*
X-12277345Y-68484395D01*
X-14510425Y-67174254D01*
X-16605001Y-65652456D01*
X-18541079Y-63933526D01*
X-20300178Y-62033872D01*
X-21865508Y-59971626D01*
X-23222127Y-57766472D01*
X-24357086Y-55439461D01*
X-25259553Y-53012802D01*
X-25920911Y-50509660D01*
X-26334850Y-47953927D01*
X-26497417Y-45369998D01*
X-26490929Y-45184198D01*
X-26496989Y-45122669D01*
X-26496989Y-44877331D01*
X-26479505Y-44699813D01*
X-21497904Y-44699813D01*
X-21424596Y-46799074D01*
X-21146787Y-48881162D01*
X-20667126Y-50926203D01*
X-19990194Y-52914678D01*
X-19122452Y-54827605D01*
X-18072182Y-56646727D01*
X-16849409Y-58354677D01*
X-15465806Y-59935155D01*
X-13934578Y-61373074D01*
X-12270342Y-62654708D01*
X-10488983Y-63767825D01*
X-8607504Y-64701799D01*
X-6643865Y-65447715D01*
X-4616810Y-65998454D01*
X-2545685Y-66348758D01*
X-450262Y-66495285D01*
X1649459Y-66436634D01*
X3733436Y-66173367D01*
X5781776Y-65707995D01*
X7774928Y-65044962D01*
X9693867Y-64190595D01*
X11520276Y-63153050D01*
X13236722Y-61942231D01*
X14826820Y-60569695D01*
X16275394Y-59048543D01*
X17568615Y-57393295D01*
X18694141Y-55619750D01*
X19641227Y-53744838D01*
X20400834Y-51786454D01*
X20965711Y-49763293D01*
X21330466Y-47694665D01*
X21491617Y-45600315D01*
X21500000Y-45000000D01*
X21397389Y-42901968D01*
X21090536Y-40823961D01*
X20582369Y-38785816D01*
X19877740Y-36806987D01*
X18983373Y-34906361D01*
X17907807Y-33102082D01*
X16661307Y-31411370D01*
X15255771Y-29850364D01*
X13704616Y-28433965D01*
X12022647Y-27175692D01*
X10225920Y-26087556D01*
X8331585Y-25179942D01*
X6357723Y-24461515D01*
X4323175Y-23939132D01*
X2247362Y-23617779D01*
X150097Y-23500524D01*
X-1948600Y-23588485D01*
X-4028698Y-23880824D01*
X-6070341Y-24374750D01*
X-8054042Y-25065547D01*
X-9960865Y-25946623D01*
X-11772609Y-27009567D01*
X-13471982Y-28244234D01*
X-15042762Y-29638837D01*
X-16469956Y-31180066D01*
X-17739940Y-32853209D01*
X-18840594Y-34642296D01*
X-19761410Y-36530249D01*
X-20493599Y-38499047D01*
X-21030173Y-40529899D01*
X-21366010Y-42603418D01*
X-21497904Y-44699813D01*
X-26479505Y-44699813D01*
X-26472941Y-44633174D01*
X-26471419Y-44625522D01*
X-26407061Y-42782537D01*
X-26064644Y-40216243D01*
X-25473435Y-37695610D01*
X-24639077Y-35244699D01*
X-23569534Y-32886905D01*
X-22275015Y-30644732D01*
X-20767877Y-28539584D01*
X-19062505Y-26591553D01*
X-17175177Y-24819235D01*
X-15123910Y-23239546D01*
X-12928281Y-21867565D01*
X-10609249Y-20716388D01*
X-8188950Y-19797002D01*
X-5690486Y-19118185D01*
X-3137705Y-18686414D01*
X-554974Y-18505812D01*
X2033054Y-18578102D01*
X2033054Y-18578102D01*
G37*
D10*
G04 #@! TO.P,U1,1*
G04 #@! TO.N,Net-(J1-Pad1)*
X-18000000Y-45000000D03*
D11*
G04 #@! TD*
G04 #@! TO.N,Net-(J1-Pad1)*
G04 #@! TO.C,U1*
G36*
X1572740Y-24560419D02*
X3559788Y-24811441D01*
X5512856Y-25255167D01*
X7413304Y-25887362D01*
X9242990Y-26701991D01*
X10984449Y-27691278D01*
X12621060Y-28845780D01*
X14137201Y-30154477D01*
X15518399Y-31604878D01*
X16751470Y-33183138D01*
X17824646Y-34874192D01*
X18727682Y-36661899D01*
X19451958Y-38529195D01*
X19990562Y-40458256D01*
X20338351Y-42430669D01*
X20492007Y-44427606D01*
X20500000Y-45000000D01*
X20402162Y-47000449D01*
X20109581Y-48981804D01*
X19625050Y-50925152D01*
X18953194Y-52811943D01*
X18100426Y-54624167D01*
X17074885Y-56344527D01*
X15886362Y-57956601D01*
X14546200Y-59445001D01*
X13067192Y-60795521D01*
X11463455Y-61995270D01*
X9750296Y-63032796D01*
X7944070Y-63898195D01*
X6062015Y-64583206D01*
X4122097Y-65081293D01*
X2142833Y-65387699D01*
X143116Y-65499500D01*
X-1857968Y-65415630D01*
X-3841317Y-65136889D01*
X-5788000Y-64665936D01*
X-7679435Y-64007269D01*
X-9497569Y-63167173D01*
X-11225046Y-62153668D01*
X-12845378Y-60976428D01*
X-14343098Y-59646690D01*
X-15703911Y-58177146D01*
X-16914827Y-56581824D01*
X-17964287Y-54875950D01*
X-18842274Y-53075809D01*
X-19540409Y-51198583D01*
X-20052026Y-49262190D01*
X-20372242Y-47285113D01*
X-20498002Y-45286225D01*
X-20493520Y-45157886D01*
X-20496989Y-45122669D01*
X-20496989Y-44877331D01*
X-20487756Y-44783586D01*
X-15498489Y-44783586D01*
X-15445639Y-46297007D01*
X-15245358Y-47798047D01*
X-14899556Y-49272379D01*
X-14411536Y-50705931D01*
X-13785954Y-52085018D01*
X-13028782Y-53396477D01*
X-12147249Y-54627791D01*
X-11149767Y-55767205D01*
X-10045858Y-56803844D01*
X-8846060Y-57727813D01*
X-7561825Y-58530292D01*
X-6205410Y-59203622D01*
X-4789763Y-59741376D01*
X-3328398Y-60138420D01*
X-1835262Y-60390965D01*
X-324608Y-60496601D01*
X1189145Y-60454318D01*
X2691547Y-60264520D01*
X4168257Y-59929020D01*
X5605181Y-59451019D01*
X6988602Y-58835080D01*
X8305315Y-58087083D01*
X9542753Y-57214167D01*
X10689103Y-56224664D01*
X11733423Y-55128019D01*
X12665746Y-53934701D01*
X13477171Y-52656099D01*
X14159955Y-51304418D01*
X14707578Y-49892560D01*
X15114815Y-48434002D01*
X15377778Y-46942665D01*
X15493957Y-45432785D01*
X15500000Y-45000000D01*
X15426025Y-43487465D01*
X15204805Y-41989368D01*
X14838452Y-40520007D01*
X14330464Y-39093409D01*
X13685688Y-37723191D01*
X12910279Y-36422431D01*
X12011640Y-35203546D01*
X10998346Y-34078170D01*
X9880072Y-33057045D01*
X8667490Y-32149918D01*
X7372175Y-31365447D01*
X6006492Y-30711121D01*
X4583475Y-30193185D01*
X3116708Y-29816584D01*
X1620191Y-29584911D01*
X108210Y-29500378D01*
X-1404805Y-29563792D01*
X-2904410Y-29774548D01*
X-4376293Y-30130633D01*
X-5806402Y-30628650D01*
X-7181089Y-31263845D01*
X-8487230Y-32030153D01*
X-9712359Y-32920262D01*
X-10844782Y-33925673D01*
X-11873689Y-35036792D01*
X-12789259Y-36243011D01*
X-13582754Y-37532818D01*
X-14246598Y-38893900D01*
X-14774455Y-40313267D01*
X-15161288Y-41777369D01*
X-15403403Y-43272232D01*
X-15498489Y-44783586D01*
X-20487756Y-44783586D01*
X-20476436Y-44668661D01*
X-20428104Y-43284604D01*
X-20163215Y-41299358D01*
X-19705865Y-39349434D01*
X-19060418Y-37453447D01*
X-18233036Y-35629492D01*
X-17231615Y-33894982D01*
X-16065716Y-32266471D01*
X-14746466Y-30759503D01*
X-13286458Y-29388465D01*
X-11699628Y-28166441D01*
X-10001123Y-27105097D01*
X-8207155Y-26214564D01*
X-6334848Y-25503341D01*
X-4402074Y-24978218D01*
X-2427281Y-24644207D01*
X-429320Y-24504496D01*
X1572740Y-24560419D01*
X1572740Y-24560419D01*
G37*
D12*
G04 #@! TO.P,J1,4*
G04 #@! TO.N,Net-(J1-Pad4)*
X-41000000Y-46000000D03*
G04 #@! TO.P,J1,3*
G04 #@! TO.N,Net-(J1-Pad3)*
X-41000000Y-44000000D03*
G04 #@! TO.P,J1,2*
G04 #@! TO.N,Net-(J1-Pad2)*
X-41000000Y-42000000D03*
D11*
G04 #@! TD*
G04 #@! TO.N,Net-(J1-Pad1)*
G04 #@! TO.C,J1*
G36*
X-40350495Y-39401204D02*
X-40326227Y-39404804D01*
X-40302428Y-39410765D01*
X-40279329Y-39419030D01*
X-40257150Y-39429520D01*
X-40236107Y-39442132D01*
X-40216401Y-39456747D01*
X-40198223Y-39473223D01*
X-40181747Y-39491401D01*
X-40167132Y-39511107D01*
X-40154520Y-39532150D01*
X-40144030Y-39554329D01*
X-40135765Y-39577428D01*
X-40129804Y-39601227D01*
X-40126204Y-39625495D01*
X-40125000Y-39649999D01*
X-40125000Y-40350001D01*
X-40126204Y-40374505D01*
X-40129804Y-40398773D01*
X-40135765Y-40422572D01*
X-40144030Y-40445671D01*
X-40154520Y-40467850D01*
X-40167132Y-40488893D01*
X-40181747Y-40508599D01*
X-40198223Y-40526777D01*
X-40216401Y-40543253D01*
X-40236107Y-40557868D01*
X-40257150Y-40570480D01*
X-40279329Y-40580970D01*
X-40302428Y-40589235D01*
X-40326227Y-40595196D01*
X-40350495Y-40598796D01*
X-40374999Y-40600000D01*
X-41625001Y-40600000D01*
X-41649505Y-40598796D01*
X-41673773Y-40595196D01*
X-41697572Y-40589235D01*
X-41720671Y-40580970D01*
X-41742850Y-40570480D01*
X-41763893Y-40557868D01*
X-41783599Y-40543253D01*
X-41801777Y-40526777D01*
X-41818253Y-40508599D01*
X-41832868Y-40488893D01*
X-41845480Y-40467850D01*
X-41855970Y-40445671D01*
X-41864235Y-40422572D01*
X-41870196Y-40398773D01*
X-41873796Y-40374505D01*
X-41875000Y-40350001D01*
X-41875000Y-39649999D01*
X-41873796Y-39625495D01*
X-41870196Y-39601227D01*
X-41864235Y-39577428D01*
X-41855970Y-39554329D01*
X-41845480Y-39532150D01*
X-41832868Y-39511107D01*
X-41818253Y-39491401D01*
X-41801777Y-39473223D01*
X-41783599Y-39456747D01*
X-41763893Y-39442132D01*
X-41742850Y-39429520D01*
X-41720671Y-39419030D01*
X-41697572Y-39410765D01*
X-41673773Y-39404804D01*
X-41649505Y-39401204D01*
X-41625001Y-39400000D01*
X-40374999Y-39400000D01*
X-40350495Y-39401204D01*
X-40350495Y-39401204D01*
G37*
D13*
G04 #@! TO.P,J1,1*
G04 #@! TO.N,Net-(J1-Pad1)*
X-41000000Y-40000000D03*
G04 #@! TD*
D14*
G04 #@! TO.P,H1,*
G04 #@! TO.N,*
X30000000Y-75000000D03*
G04 #@! TD*
G04 #@! TO.P,H2,*
G04 #@! TO.N,*
X-30000000Y-75000000D03*
G04 #@! TD*
G04 #@! TO.P,H3,*
G04 #@! TO.N,*
X-30000000Y-15000000D03*
G04 #@! TD*
G04 #@! TO.P,H4,*
G04 #@! TO.N,*
X30000000Y-15000000D03*
G04 #@! TD*
D15*
G04 #@! TO.N,Net-(J1-Pad1)*
X-17500000Y-40000000D03*
G04 #@! TO.N,Net-(J1-Pad2)*
X-24000000Y-42000000D03*
G04 #@! TO.N,Net-(J1-Pad3)*
X-30000000Y-44000000D03*
G04 #@! TD*
D16*
G04 #@! TO.N,Net-(J1-Pad4)*
X-41000000Y-46000000D02*
X-36500000Y-46000000D01*
G04 #@! TD*
M02*
