G04 #@! TF.GenerationSoftware,KiCad,Pcbnew,(5.0.2)-1*
G04 #@! TF.CreationDate,2019-06-21T17:07:53-07:00*
G04 #@! TF.ProjectId,slip_ring,736c6970-5f72-4696-9e67-2e6b69636164,rev?*
G04 #@! TF.SameCoordinates,Original*
G04 #@! TF.FileFunction,Soldermask,Top*
G04 #@! TF.FilePolarity,Negative*
%FSLAX46Y46*%
G04 Gerber Fmt 4.6, Leading zero omitted, Abs format (unit mm)*
G04 Created by KiCad (PCBNEW (5.0.2)-1) date 6/21/2019 5:07:53 PM*
%MOMM*%
%LPD*%
G01*
G04 APERTURE LIST*
%ADD10C,0.100000*%
G04 APERTURE END LIST*
D10*
G36*
X6683337Y-7032734D02*
X6705293Y-7036606D01*
X13930603Y-9053948D01*
X13951382Y-9062007D01*
X20647255Y-12444336D01*
X20666070Y-12456277D01*
X26577457Y-17074759D01*
X26593599Y-17090131D01*
X31495333Y-22768843D01*
X31508185Y-22787062D01*
X35213567Y-29309715D01*
X35222629Y-29330067D01*
X37590524Y-36448222D01*
X37595459Y-36469947D01*
X38535994Y-43915055D01*
X38536885Y-43927780D01*
X38551798Y-44995793D01*
X38551264Y-45008537D01*
X37818975Y-52476999D01*
X37814646Y-52498858D01*
X35646429Y-59680342D01*
X35637932Y-59700955D01*
X32116122Y-66324518D01*
X32103788Y-66343083D01*
X27362514Y-72156457D01*
X27346816Y-72172265D01*
X21566692Y-76954001D01*
X21548209Y-76966468D01*
X14949390Y-80534435D01*
X14928847Y-80543070D01*
X7762668Y-82761374D01*
X7740841Y-82765854D01*
X280282Y-83549991D01*
X257995Y-83550146D01*
X-7212800Y-82870250D01*
X-7234686Y-82866076D01*
X-14431123Y-80748049D01*
X-14451802Y-80739694D01*
X-21099788Y-77264211D01*
X-21118439Y-77252006D01*
X-26964761Y-72551442D01*
X-26980689Y-72535845D01*
X-31802666Y-66789236D01*
X-31815254Y-66770853D01*
X-35429202Y-60197106D01*
X-35437985Y-60176614D01*
X-37706259Y-53026109D01*
X-37710894Y-53004302D01*
X-38547094Y-45549400D01*
X-38547406Y-45527116D01*
X-38530273Y-45323088D01*
X-38532237Y-45288241D01*
X-38537620Y-45261179D01*
X-38539814Y-45238903D01*
X-38539814Y-44761097D01*
X-38537620Y-44738817D01*
X-38499110Y-44545208D01*
X-33443614Y-44545208D01*
X-32899425Y-51025774D01*
X-32895021Y-51049769D01*
X-31102449Y-57301212D01*
X-31093468Y-57323894D01*
X-28120789Y-63108101D01*
X-28107574Y-63128607D01*
X-24068018Y-68225257D01*
X-24051071Y-68242806D01*
X-19098504Y-72457773D01*
X-19078471Y-72471696D01*
X-13401531Y-75644429D01*
X-13379176Y-75654196D01*
X-7194103Y-77663848D01*
X-7170277Y-77669087D01*
X-712651Y-78439113D01*
X-688260Y-78439624D01*
X5795949Y-77940691D01*
X5819974Y-77936454D01*
X12083774Y-76187569D01*
X12106519Y-76178747D01*
X17911345Y-73246520D01*
X17931943Y-73233448D01*
X23056666Y-69229574D01*
X23074332Y-69212751D01*
X27323771Y-64289730D01*
X27337834Y-64269795D01*
X30550123Y-58615144D01*
X30560046Y-58592857D01*
X32612830Y-52421958D01*
X32618234Y-52398169D01*
X33434256Y-45938693D01*
X33435230Y-45924771D01*
X33448015Y-45009161D01*
X33447430Y-44995218D01*
X32812085Y-38515467D01*
X32807347Y-38491536D01*
X30927665Y-32265728D01*
X30918368Y-32243173D01*
X27865220Y-26501036D01*
X27851720Y-26480716D01*
X23741399Y-21440965D01*
X23724209Y-21423655D01*
X18713271Y-17278247D01*
X18693046Y-17264605D01*
X12972363Y-14171443D01*
X12949873Y-14161989D01*
X6737339Y-12238889D01*
X6713442Y-12233984D01*
X245698Y-11554197D01*
X221303Y-11554026D01*
X-6255302Y-12143443D01*
X-6279266Y-12148015D01*
X-12518048Y-13984189D01*
X-12540667Y-13993328D01*
X-18303981Y-17006315D01*
X-18324394Y-17019673D01*
X-23392717Y-21094710D01*
X-23410148Y-21111779D01*
X-27590433Y-26093648D01*
X-27604215Y-26113777D01*
X-30737241Y-31812730D01*
X-30746852Y-31835153D01*
X-32713277Y-38034109D01*
X-32718349Y-38057971D01*
X-33443273Y-44520814D01*
X-33443614Y-44545208D01*
X-38499110Y-44545208D01*
X-38494523Y-44522151D01*
X-38443207Y-44264172D01*
X-38443364Y-44264141D01*
X-38439779Y-44245419D01*
X-37919683Y-38051760D01*
X-37915662Y-38029851D01*
X-35847921Y-30818783D01*
X-35839719Y-30798067D01*
X-32410729Y-24125975D01*
X-32398650Y-24107232D01*
X-27739017Y-18228238D01*
X-27723529Y-18212200D01*
X-22010737Y-13350232D01*
X-21992427Y-13337506D01*
X-15444079Y-9677759D01*
X-15423643Y-9668831D01*
X-8289149Y-7350693D01*
X-8267379Y-7345906D01*
X-818494Y-6457681D01*
X-796209Y-6457214D01*
X6683337Y-7032734D01*
X6683337Y-7032734D01*
G37*
G36*
X5641448Y-12941580D02*
X5663404Y-12945452D01*
X11760856Y-14647890D01*
X11781635Y-14655949D01*
X17432294Y-17510303D01*
X17451109Y-17522244D01*
X22439740Y-21419791D01*
X22455882Y-21435163D01*
X26592463Y-26227437D01*
X26605315Y-26245656D01*
X29732294Y-31750135D01*
X29741360Y-31770496D01*
X31739626Y-37777504D01*
X31744563Y-37799238D01*
X32538334Y-44082585D01*
X32539225Y-44095310D01*
X32551798Y-44995793D01*
X32551264Y-45008537D01*
X31933245Y-51311592D01*
X31928916Y-51333451D01*
X30099153Y-57393919D01*
X30090656Y-57414533D01*
X27118594Y-63004168D01*
X27106260Y-63022733D01*
X23105090Y-67928652D01*
X23089392Y-67944460D01*
X18211534Y-71979775D01*
X18193051Y-71992242D01*
X12624297Y-75003256D01*
X12603754Y-75011891D01*
X6556200Y-76883923D01*
X6534373Y-76888403D01*
X238394Y-77550137D01*
X216107Y-77550292D01*
X-6088512Y-76976527D01*
X-6110398Y-76972353D01*
X-12183483Y-75184946D01*
X-12204162Y-75176591D01*
X-17814409Y-72243625D01*
X-17833060Y-72231420D01*
X-22766781Y-68264606D01*
X-22782709Y-68249009D01*
X-26851985Y-63399434D01*
X-26864573Y-63381051D01*
X-29914390Y-57833454D01*
X-29923173Y-57812962D01*
X-31837372Y-51778641D01*
X-31842008Y-51756830D01*
X-32547679Y-45465628D01*
X-32547991Y-45443342D01*
X-32535631Y-45296150D01*
X-32537256Y-45267312D01*
X-32537018Y-45267289D01*
X-32537576Y-45261620D01*
X-32537594Y-45261307D01*
X-32537620Y-45261176D01*
X-32539814Y-45238902D01*
X-32539814Y-44761097D01*
X-32537620Y-44738817D01*
X-32515773Y-44628980D01*
X-27444198Y-44628980D01*
X-26997996Y-49942659D01*
X-26993592Y-49966654D01*
X-25523790Y-55092464D01*
X-25514809Y-55115146D01*
X-23077390Y-59857852D01*
X-23064175Y-59878358D01*
X-19751980Y-64057307D01*
X-19735033Y-64074856D01*
X-15674222Y-67530877D01*
X-15654189Y-67544800D01*
X-10999436Y-70146253D01*
X-10977081Y-70156020D01*
X-5905691Y-71803815D01*
X-5881865Y-71809054D01*
X-586997Y-72440429D01*
X-562606Y-72440940D01*
X4754060Y-72031844D01*
X4778085Y-72027607D01*
X9914027Y-70593627D01*
X9936772Y-70584805D01*
X14696384Y-68180552D01*
X14716982Y-68167480D01*
X18918948Y-64884543D01*
X18936614Y-64867720D01*
X22420902Y-60831135D01*
X22434965Y-60811200D01*
X25068850Y-56174724D01*
X25078773Y-56152437D01*
X26761934Y-51092667D01*
X26767338Y-51068878D01*
X27436595Y-45771163D01*
X27437569Y-45757241D01*
X27448015Y-45009161D01*
X27447430Y-44995218D01*
X26926354Y-39680873D01*
X26921616Y-39656942D01*
X25380389Y-34552151D01*
X25371092Y-34529596D01*
X22867692Y-29821385D01*
X22854192Y-29801065D01*
X19483974Y-25668770D01*
X19466784Y-25651460D01*
X15358114Y-22252473D01*
X15337889Y-22238831D01*
X10647270Y-19702622D01*
X10624780Y-19693168D01*
X5530872Y-18116341D01*
X5506975Y-18111436D01*
X203811Y-17554051D01*
X179416Y-17553880D01*
X-5131014Y-18037167D01*
X-5154978Y-18041739D01*
X-10270408Y-19547292D01*
X-10293027Y-19556431D01*
X-15018602Y-22026901D01*
X-15039015Y-22040259D01*
X-19194737Y-25381546D01*
X-19212168Y-25398615D01*
X-22639752Y-29483450D01*
X-22653534Y-29503579D01*
X-25222429Y-34176381D01*
X-25232040Y-34198804D01*
X-26844391Y-39281580D01*
X-26849463Y-39305442D01*
X-27443857Y-44604586D01*
X-27444198Y-44628980D01*
X-32515773Y-44628980D01*
X-32511186Y-44605924D01*
X-32454560Y-44321250D01*
X-32452596Y-44307324D01*
X-32018254Y-39134875D01*
X-32014233Y-39112966D01*
X-30269262Y-33027530D01*
X-30261060Y-33006814D01*
X-27367330Y-27376224D01*
X-27355251Y-27357481D01*
X-23422979Y-22396188D01*
X-23407491Y-22380150D01*
X-18586456Y-18277128D01*
X-18568146Y-18264402D01*
X-13041985Y-15175935D01*
X-13021549Y-15167007D01*
X-7000737Y-13210727D01*
X-6978967Y-13205940D01*
X-692840Y-12456365D01*
X-670555Y-12455898D01*
X5641448Y-12941580D01*
X5641448Y-12941580D01*
G37*
G36*
X4599559Y-18850427D02*
X4621515Y-18854299D01*
X9591108Y-20241833D01*
X9611887Y-20249892D01*
X14217333Y-22576271D01*
X14236148Y-22588212D01*
X18302023Y-25764822D01*
X18318165Y-25780194D01*
X21689594Y-29686031D01*
X21702446Y-29704250D01*
X24251022Y-34190555D01*
X24260084Y-34210907D01*
X25888732Y-39106804D01*
X25893667Y-39128529D01*
X26540673Y-44250115D01*
X26541564Y-44262840D01*
X26551798Y-44995793D01*
X26551264Y-45008537D01*
X26047514Y-50146186D01*
X26043185Y-50168045D01*
X24551877Y-55107498D01*
X24543380Y-55128111D01*
X22121067Y-59683819D01*
X22108733Y-59702384D01*
X18847666Y-63700847D01*
X18831968Y-63716655D01*
X14856377Y-67005550D01*
X14837894Y-67018017D01*
X10299203Y-69472078D01*
X10278658Y-69480715D01*
X5349736Y-71006470D01*
X5327906Y-71010951D01*
X196506Y-71550283D01*
X174219Y-71550438D01*
X-4964224Y-71082803D01*
X-4986110Y-71078629D01*
X-9935844Y-69621843D01*
X-9956523Y-69613488D01*
X-14529029Y-67223039D01*
X-14547680Y-67210834D01*
X-18568801Y-63977770D01*
X-18584729Y-63962173D01*
X-21901304Y-60009632D01*
X-21913892Y-59991249D01*
X-24399577Y-55469803D01*
X-24408360Y-55449311D01*
X-25968486Y-50531171D01*
X-25973122Y-50509360D01*
X-26548264Y-45381855D01*
X-26548576Y-45359569D01*
X-26540028Y-45257779D01*
X-26540119Y-45245043D01*
X-26539814Y-45245043D01*
X-26539814Y-44761097D01*
X-26537621Y-44738826D01*
X-26532436Y-44712754D01*
X-21444783Y-44712754D01*
X-21096568Y-48859545D01*
X-21092164Y-48883540D01*
X-19945131Y-52883717D01*
X-19936150Y-52906399D01*
X-18033990Y-56607603D01*
X-18020775Y-56628109D01*
X-15435941Y-59889357D01*
X-15418994Y-59906906D01*
X-12249941Y-62603982D01*
X-12229908Y-62617905D01*
X-8597342Y-64648077D01*
X-8574987Y-64657844D01*
X-4617280Y-65943781D01*
X-4593454Y-65949020D01*
X-461342Y-66441745D01*
X-436951Y-66442256D01*
X3712171Y-66122998D01*
X3736196Y-66118761D01*
X7744279Y-64999684D01*
X7767024Y-64990862D01*
X11481423Y-63114584D01*
X11502021Y-63101512D01*
X14781231Y-60539512D01*
X14798897Y-60522689D01*
X17518032Y-57372542D01*
X17532095Y-57352607D01*
X19587577Y-53734304D01*
X19597500Y-53712017D01*
X20911038Y-49763376D01*
X20916442Y-49739587D01*
X21438934Y-45603633D01*
X21439908Y-45589711D01*
X21448015Y-45009161D01*
X21447430Y-44995218D01*
X21040623Y-40846279D01*
X21035885Y-40822348D01*
X19833113Y-36838573D01*
X19823816Y-36816018D01*
X17870165Y-33141735D01*
X17856665Y-33121415D01*
X15226550Y-29896575D01*
X15209360Y-29879265D01*
X12002956Y-27226698D01*
X11982731Y-27213056D01*
X8322176Y-25233801D01*
X8299686Y-25224347D01*
X4324404Y-23993792D01*
X4300507Y-23988887D01*
X161923Y-23553905D01*
X137528Y-23553734D01*
X-4006726Y-23930890D01*
X-4030690Y-23935462D01*
X-8022769Y-25110395D01*
X-8045388Y-25119534D01*
X-11733222Y-27047487D01*
X-11753635Y-27060845D01*
X-14996757Y-29668382D01*
X-15014188Y-29685451D01*
X-17689071Y-32873252D01*
X-17702853Y-32893381D01*
X-19707617Y-36540033D01*
X-19717228Y-36562456D01*
X-20975505Y-40529050D01*
X-20980577Y-40552912D01*
X-21444442Y-44688360D01*
X-21444783Y-44712754D01*
X-26532436Y-44712754D01*
X-26527849Y-44689698D01*
X-26527848Y-44689688D01*
X-26467747Y-44387543D01*
X-26465783Y-44373616D01*
X-26116825Y-40217990D01*
X-26112804Y-40196081D01*
X-24690603Y-35236277D01*
X-24682401Y-35215561D01*
X-22323930Y-30626473D01*
X-22311851Y-30607730D01*
X-19106940Y-26564138D01*
X-19091452Y-26548100D01*
X-15162175Y-23204023D01*
X-15143865Y-23191297D01*
X-10639890Y-20674112D01*
X-10619454Y-20665184D01*
X-5712325Y-19070761D01*
X-5690556Y-19065974D01*
X-567184Y-18455049D01*
X-544900Y-18454582D01*
X4599559Y-18850427D01*
X4599559Y-18850427D01*
G37*
G36*
X3557670Y-24759273D02*
X3579626Y-24763145D01*
X7421361Y-25835776D01*
X7442140Y-25843835D01*
X11002372Y-27642239D01*
X11021187Y-27654180D01*
X14164306Y-30109853D01*
X14180448Y-30125225D01*
X16786724Y-33144625D01*
X16799576Y-33162844D01*
X18769749Y-36630975D01*
X18778811Y-36651327D01*
X20037836Y-40436095D01*
X20042771Y-40457820D01*
X20543012Y-44417644D01*
X20543903Y-44430369D01*
X20551798Y-44995793D01*
X20551264Y-45008537D01*
X20161783Y-48980780D01*
X20157454Y-49002639D01*
X19004601Y-52821076D01*
X18996104Y-52841689D01*
X17123539Y-56363470D01*
X17111205Y-56382035D01*
X14590241Y-59473041D01*
X14574543Y-59488849D01*
X11501220Y-62031324D01*
X11482737Y-62043791D01*
X7974110Y-63940899D01*
X7953565Y-63949536D01*
X4143268Y-65129019D01*
X4121438Y-65133500D01*
X154619Y-65550429D01*
X132332Y-65550584D01*
X-3839936Y-65189080D01*
X-3861822Y-65184906D01*
X-7688204Y-64058740D01*
X-7708883Y-64050385D01*
X-11243650Y-62202453D01*
X-11262301Y-62190248D01*
X-14370820Y-59690934D01*
X-14386748Y-59675337D01*
X-16950623Y-56619830D01*
X-16963211Y-56601447D01*
X-18884765Y-53106151D01*
X-18893548Y-53085659D01*
X-20099601Y-49283701D01*
X-20104237Y-49261890D01*
X-20548849Y-45298082D01*
X-20549161Y-45275796D01*
X-20540252Y-45169706D01*
X-20539814Y-45159246D01*
X-20539814Y-44796526D01*
X-15445368Y-44796526D01*
X-15195139Y-47776430D01*
X-15190735Y-47800425D01*
X-14366473Y-50674970D01*
X-14357492Y-50697652D01*
X-12990590Y-53357353D01*
X-12977375Y-53377859D01*
X-11119902Y-55721407D01*
X-11102955Y-55738956D01*
X-8825659Y-57677087D01*
X-8805626Y-57691010D01*
X-6195248Y-59149900D01*
X-6172893Y-59159667D01*
X-3328868Y-60083747D01*
X-3305042Y-60088986D01*
X-335688Y-60443061D01*
X-311297Y-60443572D01*
X2670282Y-60214151D01*
X2694307Y-60209914D01*
X5574532Y-59405741D01*
X5597277Y-59396919D01*
X8266462Y-58048617D01*
X8287060Y-58035545D01*
X10643514Y-56194481D01*
X10661180Y-56177658D01*
X12615163Y-53913948D01*
X12629226Y-53894013D01*
X14106305Y-51293884D01*
X14116228Y-51271597D01*
X15060142Y-48434085D01*
X15065546Y-48410296D01*
X15441274Y-45436103D01*
X15442248Y-45422181D01*
X15448015Y-45009161D01*
X15447430Y-44995218D01*
X15300403Y-43495721D01*
X15299792Y-43492640D01*
X15299895Y-43490544D01*
X15154892Y-42011686D01*
X15150154Y-41987755D01*
X14712953Y-40539673D01*
X14711811Y-40536906D01*
X14711518Y-40534922D01*
X14285837Y-39124995D01*
X14276540Y-39102440D01*
X13560047Y-37754914D01*
X13558552Y-37752666D01*
X13557940Y-37750950D01*
X12872637Y-36462084D01*
X12859137Y-36441764D01*
X11885926Y-35248490D01*
X11884323Y-35246877D01*
X11883535Y-35245558D01*
X10969125Y-34124381D01*
X10951935Y-34107071D01*
X9754869Y-33116772D01*
X9753447Y-33115814D01*
X9752669Y-33114952D01*
X8647799Y-32200924D01*
X8627574Y-32187282D01*
X7248719Y-31441737D01*
X7247789Y-31441347D01*
X7247245Y-31440941D01*
X5997083Y-30764980D01*
X5974594Y-30755526D01*
X4463764Y-30287846D01*
X4463612Y-30287815D01*
X4463522Y-30287772D01*
X3117938Y-29871244D01*
X3094040Y-29866339D01*
X120036Y-29553759D01*
X95641Y-29553588D01*
X-2882438Y-29824614D01*
X-2906402Y-29829186D01*
X-5775129Y-30673498D01*
X-5797748Y-30682637D01*
X-8447843Y-32068073D01*
X-8468256Y-32081431D01*
X-10798774Y-33955215D01*
X-10816205Y-33972284D01*
X-12738392Y-36263057D01*
X-12752174Y-36283186D01*
X-14192805Y-38903684D01*
X-14202416Y-38926107D01*
X-15106620Y-41776520D01*
X-15111692Y-41800382D01*
X-15445027Y-44772132D01*
X-15445368Y-44796526D01*
X-20539814Y-44796526D01*
X-20539814Y-44761097D01*
X-20537620Y-44738817D01*
X-20480933Y-44453834D01*
X-20478969Y-44439908D01*
X-20215396Y-41301105D01*
X-20211375Y-41279196D01*
X-19111944Y-37445025D01*
X-19103742Y-37424309D01*
X-17280530Y-33876723D01*
X-17268451Y-33857980D01*
X-14790901Y-30732088D01*
X-14775413Y-30716050D01*
X-11737893Y-28130918D01*
X-11719583Y-28118192D01*
X-8237796Y-26172288D01*
X-8217360Y-26163360D01*
X-4423913Y-24930794D01*
X-4402143Y-24926007D01*
X-441531Y-24453733D01*
X-419246Y-24453266D01*
X3557670Y-24759273D01*
X3557670Y-24759273D01*
G37*
G36*
X4390218Y-30527402D02*
X7129325Y-31661978D01*
X9594456Y-33309127D01*
X11690873Y-35405544D01*
X13290289Y-37799238D01*
X13338023Y-37870678D01*
X13415602Y-38057971D01*
X14472600Y-40609788D01*
X15051000Y-43517606D01*
X15051000Y-46482396D01*
X14472599Y-49390214D01*
X13338024Y-52129321D01*
X11690873Y-54594456D01*
X9594456Y-56690873D01*
X7129321Y-58338024D01*
X4390214Y-59472599D01*
X1482396Y-60051000D01*
X-1482396Y-60051000D01*
X-4390214Y-59472599D01*
X-7129321Y-58338024D01*
X-9594456Y-56690873D01*
X-11690873Y-54594456D01*
X-13338024Y-52129321D01*
X-14472599Y-49390214D01*
X-15051000Y-46482396D01*
X-15051000Y-43517604D01*
X-14472599Y-40609786D01*
X-13338024Y-37870679D01*
X-11690873Y-35405544D01*
X-9594456Y-33309127D01*
X-7129321Y-31661976D01*
X-4390214Y-30527401D01*
X-1482396Y-29949000D01*
X1482396Y-29949000D01*
X4390218Y-30527402D01*
X4390218Y-30527402D01*
G37*
G36*
X-29182979Y-72306640D02*
X-28673230Y-72517785D01*
X-28639775Y-72540139D01*
X-28214466Y-72824321D01*
X-27824321Y-73214466D01*
X-27619964Y-73520308D01*
X-27517785Y-73673230D01*
X-27306640Y-74182979D01*
X-27199000Y-74724124D01*
X-27199000Y-75275876D01*
X-27306640Y-75817021D01*
X-27517785Y-76326770D01*
X-27517786Y-76326771D01*
X-27824321Y-76785534D01*
X-28214466Y-77175679D01*
X-28346964Y-77264211D01*
X-28673230Y-77482215D01*
X-29182979Y-77693360D01*
X-29724124Y-77801000D01*
X-30275876Y-77801000D01*
X-30817021Y-77693360D01*
X-31326770Y-77482215D01*
X-31653036Y-77264211D01*
X-31785534Y-77175679D01*
X-32175679Y-76785534D01*
X-32482214Y-76326771D01*
X-32482215Y-76326770D01*
X-32693360Y-75817021D01*
X-32801000Y-75275876D01*
X-32801000Y-74724124D01*
X-32693360Y-74182979D01*
X-32482215Y-73673230D01*
X-32380036Y-73520308D01*
X-32175679Y-73214466D01*
X-31785534Y-72824321D01*
X-31360225Y-72540139D01*
X-31326770Y-72517785D01*
X-30817021Y-72306640D01*
X-30275876Y-72199000D01*
X-29724124Y-72199000D01*
X-29182979Y-72306640D01*
X-29182979Y-72306640D01*
G37*
G36*
X30817021Y-72306640D02*
X31326770Y-72517785D01*
X31360225Y-72540139D01*
X31785534Y-72824321D01*
X32175679Y-73214466D01*
X32380036Y-73520308D01*
X32482215Y-73673230D01*
X32693360Y-74182979D01*
X32801000Y-74724124D01*
X32801000Y-75275876D01*
X32693360Y-75817021D01*
X32482215Y-76326770D01*
X32482214Y-76326771D01*
X32175679Y-76785534D01*
X31785534Y-77175679D01*
X31653036Y-77264211D01*
X31326770Y-77482215D01*
X30817021Y-77693360D01*
X30275876Y-77801000D01*
X29724124Y-77801000D01*
X29182979Y-77693360D01*
X28673230Y-77482215D01*
X28346964Y-77264211D01*
X28214466Y-77175679D01*
X27824321Y-76785534D01*
X27517786Y-76326771D01*
X27517785Y-76326770D01*
X27306640Y-75817021D01*
X27199000Y-75275876D01*
X27199000Y-74724124D01*
X27306640Y-74182979D01*
X27517785Y-73673230D01*
X27619964Y-73520308D01*
X27824321Y-73214466D01*
X28214466Y-72824321D01*
X28639775Y-72540139D01*
X28673230Y-72517785D01*
X29182979Y-72306640D01*
X29724124Y-72199000D01*
X30275876Y-72199000D01*
X30817021Y-72306640D01*
X30817021Y-72306640D01*
G37*
G36*
X-40661145Y-45352140D02*
X-40597382Y-45358420D01*
X-40515573Y-45383237D01*
X-40474667Y-45395645D01*
X-40398976Y-45436103D01*
X-40361574Y-45456095D01*
X-40262447Y-45537447D01*
X-40181095Y-45636574D01*
X-40181094Y-45636576D01*
X-40120645Y-45749667D01*
X-40108237Y-45790573D01*
X-40083420Y-45872382D01*
X-40070851Y-46000000D01*
X-40083420Y-46127618D01*
X-40108237Y-46209427D01*
X-40120645Y-46250333D01*
X-40174181Y-46350491D01*
X-40181095Y-46363426D01*
X-40262447Y-46462553D01*
X-40361574Y-46543905D01*
X-40361576Y-46543906D01*
X-40474667Y-46604355D01*
X-40515573Y-46616763D01*
X-40597382Y-46641580D01*
X-40661145Y-46647860D01*
X-40693026Y-46651000D01*
X-41306974Y-46651000D01*
X-41338855Y-46647860D01*
X-41402618Y-46641580D01*
X-41484427Y-46616763D01*
X-41525333Y-46604355D01*
X-41638424Y-46543906D01*
X-41638426Y-46543905D01*
X-41737553Y-46462553D01*
X-41818905Y-46363426D01*
X-41825819Y-46350491D01*
X-41879355Y-46250333D01*
X-41891763Y-46209427D01*
X-41916580Y-46127618D01*
X-41929149Y-46000000D01*
X-41916580Y-45872382D01*
X-41891763Y-45790573D01*
X-41879355Y-45749667D01*
X-41818906Y-45636576D01*
X-41818905Y-45636574D01*
X-41737553Y-45537447D01*
X-41638426Y-45456095D01*
X-41601024Y-45436103D01*
X-41525333Y-45395645D01*
X-41484427Y-45383237D01*
X-41402618Y-45358420D01*
X-41338855Y-45352140D01*
X-41306974Y-45349000D01*
X-40693026Y-45349000D01*
X-40661145Y-45352140D01*
X-40661145Y-45352140D01*
G37*
G36*
X-40661145Y-43352140D02*
X-40597382Y-43358420D01*
X-40515573Y-43383237D01*
X-40474667Y-43395645D01*
X-40374509Y-43449181D01*
X-40361574Y-43456095D01*
X-40262447Y-43537447D01*
X-40181095Y-43636574D01*
X-40181094Y-43636576D01*
X-40120645Y-43749667D01*
X-40120645Y-43749668D01*
X-40083420Y-43872382D01*
X-40070851Y-44000000D01*
X-40083420Y-44127618D01*
X-40108237Y-44209427D01*
X-40120645Y-44250333D01*
X-40151108Y-44307324D01*
X-40181095Y-44363426D01*
X-40262447Y-44462553D01*
X-40361574Y-44543905D01*
X-40361576Y-44543906D01*
X-40474667Y-44604355D01*
X-40515568Y-44616762D01*
X-40597382Y-44641580D01*
X-40661145Y-44647860D01*
X-40693026Y-44651000D01*
X-41306974Y-44651000D01*
X-41338855Y-44647860D01*
X-41402618Y-44641580D01*
X-41484432Y-44616762D01*
X-41525333Y-44604355D01*
X-41638424Y-44543906D01*
X-41638426Y-44543905D01*
X-41737553Y-44462553D01*
X-41818905Y-44363426D01*
X-41848892Y-44307324D01*
X-41879355Y-44250333D01*
X-41891763Y-44209427D01*
X-41916580Y-44127618D01*
X-41929149Y-44000000D01*
X-41916580Y-43872382D01*
X-41879355Y-43749668D01*
X-41879355Y-43749667D01*
X-41818906Y-43636576D01*
X-41818905Y-43636574D01*
X-41737553Y-43537447D01*
X-41638426Y-43456095D01*
X-41625491Y-43449181D01*
X-41525333Y-43395645D01*
X-41484427Y-43383237D01*
X-41402618Y-43358420D01*
X-41338855Y-43352140D01*
X-41306974Y-43349000D01*
X-40693026Y-43349000D01*
X-40661145Y-43352140D01*
X-40661145Y-43352140D01*
G37*
G36*
X-40661145Y-41352140D02*
X-40597382Y-41358420D01*
X-40515573Y-41383237D01*
X-40474667Y-41395645D01*
X-40374509Y-41449181D01*
X-40361574Y-41456095D01*
X-40262447Y-41537447D01*
X-40181095Y-41636574D01*
X-40181094Y-41636576D01*
X-40120645Y-41749667D01*
X-40108995Y-41788073D01*
X-40083420Y-41872382D01*
X-40070851Y-42000000D01*
X-40083420Y-42127618D01*
X-40108237Y-42209427D01*
X-40120645Y-42250333D01*
X-40174181Y-42350491D01*
X-40181095Y-42363426D01*
X-40262447Y-42462553D01*
X-40361574Y-42543905D01*
X-40361576Y-42543906D01*
X-40474667Y-42604355D01*
X-40515573Y-42616763D01*
X-40597382Y-42641580D01*
X-40661145Y-42647860D01*
X-40693026Y-42651000D01*
X-41306974Y-42651000D01*
X-41338855Y-42647860D01*
X-41402618Y-42641580D01*
X-41484427Y-42616763D01*
X-41525333Y-42604355D01*
X-41638424Y-42543906D01*
X-41638426Y-42543905D01*
X-41737553Y-42462553D01*
X-41818905Y-42363426D01*
X-41825819Y-42350491D01*
X-41879355Y-42250333D01*
X-41891763Y-42209427D01*
X-41916580Y-42127618D01*
X-41929149Y-42000000D01*
X-41916580Y-41872382D01*
X-41891005Y-41788073D01*
X-41879355Y-41749667D01*
X-41818906Y-41636576D01*
X-41818905Y-41636574D01*
X-41737553Y-41537447D01*
X-41638426Y-41456095D01*
X-41625491Y-41449181D01*
X-41525333Y-41395645D01*
X-41484427Y-41383237D01*
X-41402618Y-41358420D01*
X-41338855Y-41352140D01*
X-41306974Y-41349000D01*
X-40693026Y-41349000D01*
X-40661145Y-41352140D01*
X-40661145Y-41352140D01*
G37*
G36*
X-40233758Y-39353404D02*
X-40196661Y-39364657D01*
X-40162480Y-39382927D01*
X-40132518Y-39407518D01*
X-40107927Y-39437480D01*
X-40089657Y-39471661D01*
X-40078404Y-39508758D01*
X-40074000Y-39553473D01*
X-40074000Y-40446527D01*
X-40078404Y-40491242D01*
X-40089657Y-40528339D01*
X-40107927Y-40562520D01*
X-40132518Y-40592482D01*
X-40162480Y-40617073D01*
X-40196661Y-40635343D01*
X-40233758Y-40646596D01*
X-40278473Y-40651000D01*
X-41721527Y-40651000D01*
X-41766242Y-40646596D01*
X-41803339Y-40635343D01*
X-41837520Y-40617073D01*
X-41867482Y-40592482D01*
X-41892073Y-40562520D01*
X-41910343Y-40528339D01*
X-41921596Y-40491242D01*
X-41926000Y-40446527D01*
X-41926000Y-39553473D01*
X-41921596Y-39508758D01*
X-41910343Y-39471661D01*
X-41892073Y-39437480D01*
X-41867482Y-39407518D01*
X-41837520Y-39382927D01*
X-41803339Y-39364657D01*
X-41766242Y-39353404D01*
X-41721527Y-39349000D01*
X-40278473Y-39349000D01*
X-40233758Y-39353404D01*
X-40233758Y-39353404D01*
G37*
G36*
X-29182979Y-12306640D02*
X-28673230Y-12517785D01*
X-28673229Y-12517786D01*
X-28214466Y-12824321D01*
X-27824321Y-13214466D01*
X-27619964Y-13520308D01*
X-27517785Y-13673230D01*
X-27306640Y-14182979D01*
X-27199000Y-14724124D01*
X-27199000Y-15275876D01*
X-27306640Y-15817021D01*
X-27517785Y-16326770D01*
X-27517786Y-16326771D01*
X-27824321Y-16785534D01*
X-28214466Y-17175679D01*
X-28520308Y-17380036D01*
X-28673230Y-17482215D01*
X-29182979Y-17693360D01*
X-29724124Y-17801000D01*
X-30275876Y-17801000D01*
X-30817021Y-17693360D01*
X-31326770Y-17482215D01*
X-31479692Y-17380036D01*
X-31785534Y-17175679D01*
X-32175679Y-16785534D01*
X-32482214Y-16326771D01*
X-32482215Y-16326770D01*
X-32693360Y-15817021D01*
X-32801000Y-15275876D01*
X-32801000Y-14724124D01*
X-32693360Y-14182979D01*
X-32482215Y-13673230D01*
X-32380036Y-13520308D01*
X-32175679Y-13214466D01*
X-31785534Y-12824321D01*
X-31326771Y-12517786D01*
X-31326770Y-12517785D01*
X-30817021Y-12306640D01*
X-30275876Y-12199000D01*
X-29724124Y-12199000D01*
X-29182979Y-12306640D01*
X-29182979Y-12306640D01*
G37*
G36*
X30817021Y-12306640D02*
X31326770Y-12517785D01*
X31326771Y-12517786D01*
X31785534Y-12824321D01*
X32175679Y-13214466D01*
X32380036Y-13520308D01*
X32482215Y-13673230D01*
X32693360Y-14182979D01*
X32801000Y-14724124D01*
X32801000Y-15275876D01*
X32693360Y-15817021D01*
X32482215Y-16326770D01*
X32482214Y-16326771D01*
X32175679Y-16785534D01*
X31785534Y-17175679D01*
X31479692Y-17380036D01*
X31326770Y-17482215D01*
X30817021Y-17693360D01*
X30275876Y-17801000D01*
X29724124Y-17801000D01*
X29182979Y-17693360D01*
X28673230Y-17482215D01*
X28520308Y-17380036D01*
X28214466Y-17175679D01*
X27824321Y-16785534D01*
X27517786Y-16326771D01*
X27517785Y-16326770D01*
X27306640Y-15817021D01*
X27199000Y-15275876D01*
X27199000Y-14724124D01*
X27306640Y-14182979D01*
X27517785Y-13673230D01*
X27619964Y-13520308D01*
X27824321Y-13214466D01*
X28214466Y-12824321D01*
X28673229Y-12517786D01*
X28673230Y-12517785D01*
X29182979Y-12306640D01*
X29724124Y-12199000D01*
X30275876Y-12199000D01*
X30817021Y-12306640D01*
X30817021Y-12306640D01*
G37*
M02*
